<svg aria-hidden="true" style="position: absolute; width: 0; height: 0; overflow: hidden;" version="1.1" xmlns="http://www.w3.org/2000/svg" xmlns:xlink="http://www.w3.org/1999/xlink">
<defs>
<symbol id="icon-chevron-up" viewBox="0 0 32 32">
<path fill="none" stroke="#fdfdff" style="stroke: var(--color1, #fdfdff)" stroke-linejoin="round" stroke-linecap="round" stroke-miterlimit="4" stroke-width="2.6667" d="M8 12l8 8 8-8"></path>
</symbol>
<symbol id="icon-chevron-down" viewBox="0 0 32 32">
<path fill="none" stroke="#fdfdff" style="stroke: var(--color1, #fdfdff)" stroke-linejoin="round" stroke-linecap="round" stroke-miterlimit="4" stroke-width="2.6667" d="M8 20l8-8 8 8"></path>
</symbol>
<symbol id="icon-x" viewBox="0 0 32 32">
<path fill="none" stroke="#fdfdff" style="stroke: var(--color1, #fdfdff)" stroke-linejoin="round" stroke-linecap="round" stroke-miterlimit="4" stroke-width="1.6" d="M24 8l-16 16"></path>
<path fill="none" stroke="#fdfdff" style="stroke: var(--color1, #fdfdff)" stroke-linejoin="round" stroke-linecap="round" stroke-miterlimit="4" stroke-width="1.6" d="M8 8l16 16"></path>
</symbol>
<symbol id="icon-align-justify" viewBox="0 0 32 32">
<path fill="none" stroke="#fdfdff" style="stroke: var(--color1, #fdfdff)" stroke-linejoin="round" stroke-linecap="round" stroke-miterlimit="4" stroke-width="1.6" d="M28 13.333h-24"></path>
<path fill="none" stroke="#fdfdff" style="stroke: var(--color1, #fdfdff)" stroke-linejoin="round" stroke-linecap="round" stroke-miterlimit="4" stroke-width="1.6" d="M28 8h-24"></path>
<path fill="none" stroke="#fdfdff" style="stroke: var(--color1, #fdfdff)" stroke-linejoin="round" stroke-linecap="round" stroke-miterlimit="4" stroke-width="1.6" d="M28 18.667h-24"></path>
<path fill="none" stroke="#fdfdff" style="stroke: var(--color1, #fdfdff)" stroke-linejoin="round" stroke-linecap="round" stroke-miterlimit="4" stroke-width="1.6" d="M28 24h-24"></path>
</symbol>
<symbol id="icon-On" viewBox="0 0 60 32">
<path fill="#9cdfdf" style="fill: var(--color2, #9cdfdf)" d="M16 0.889h28.444c8.346 0 15.111 6.765 15.111 15.111s-6.765 15.111-15.111 15.111h-28.444c-8.346 0-15.111-6.765-15.111-15.111s6.765-15.111 15.111-15.111z"></path>
<path fill="#fdfdff" style="fill: var(--color1, #fdfdff)" d="M44.444 3.556c6.873 0 12.444 5.572 12.444 12.444v0.002c0 6.873-5.572 12.444-12.444 12.444s-12.444-5.572-12.444-12.444v-0.002c0-6.873 5.572-12.444 12.444-12.444z"></path>
<path fill="none" stroke="#7e8fdd" style="stroke: var(--color3, #7e8fdd)" stroke-linejoin="miter" stroke-linecap="butt" stroke-miterlimit="4" stroke-width="1.7778" d="M16 0.889h28.444c8.346 0 15.111 6.765 15.111 15.111s-6.765 15.111-15.111 15.111h-28.444c-8.346 0-15.111-6.765-15.111-15.111s6.765-15.111 15.111-15.111z"></path>
</symbol>
<symbol id="icon-search" viewBox="0 0 32 32">
<path d="M29.092 31.514l-6.85-6.862c-1.077 0.935-2.334 1.663-3.77 2.185s-2.962 0.782-4.578 0.782c-3.877 0-7.163-1.349-9.855-4.046s-4.039-5.952-4.039-9.764c0-3.812 1.346-7.067 4.039-9.764s5.96-4.046 9.801-4.046c3.806 0 7.046 1.349 9.721 4.046s4.012 5.952 4.012 9.764c0 1.546-0.251 3.039-0.754 4.477s-1.257 2.787-2.262 4.046l6.958 6.862c0.323 0.288 0.485 0.656 0.485 1.106s-0.18 0.854-0.539 1.214c-0.323 0.324-0.718 0.486-1.185 0.486s-0.862-0.162-1.185-0.486zM13.84 24.383c2.908 0 5.385-1.034 7.432-3.102s3.070-4.558 3.070-7.471-1.023-5.403-3.070-7.471c-2.046-2.068-4.524-3.102-7.432-3.102-2.944 0-5.448 1.034-7.513 3.102s-3.097 4.558-3.097 7.471c0 2.913 1.032 5.403 3.097 7.471s4.569 3.102 7.513 3.102z"></path>
</symbol>
<symbol id="icon-u_facebook-f" viewBox="0 0 32 32">
<path fill="#fdfdff" style="fill: var(--color1, #fdfdff)" d="M18.425 10.801h1.462v-2.473c-0.708-0.074-1.419-0.11-2.131-0.109-2.116 0-3.562 1.291-3.562 3.656v2.038h-2.388v2.769h2.388v7.093h2.862v-7.093h2.38l0.358-2.769h-2.738v-1.766c0-0.817 0.218-1.346 1.369-1.346z"></path>
<path fill="none" stroke="#fdfdff" style="stroke: var(--color1, #fdfdff)" stroke-linejoin="miter" stroke-linecap="butt" stroke-miterlimit="4" stroke-width="0.8" d="M4.8 0.4h22.4c2.43 0 4.4 1.97 4.4 4.4v22.4c0 2.43-1.97 4.4-4.4 4.4h-22.4c-2.43 0-4.4-1.97-4.4-4.4v-22.4c0-2.43 1.97-4.4 4.4-4.4z"></path>
</symbol>
<symbol id="icon-u_instagram-1" viewBox="0 0 32 32">
<path fill="#fdfdff" style="fill: var(--color1, #fdfdff)" d="M19.991 11.115c-0.177 0-0.35 0.053-0.498 0.151s-0.262 0.238-0.33 0.402c-0.068 0.164-0.086 0.344-0.051 0.518s0.12 0.333 0.245 0.459c0.125 0.125 0.285 0.211 0.459 0.245s0.354 0.017 0.518-0.051c0.164-0.068 0.304-0.183 0.402-0.33s0.151-0.321 0.151-0.498c0-0.238-0.094-0.466-0.262-0.634s-0.396-0.262-0.634-0.262zM23.426 12.922c-0.014-0.62-0.13-1.232-0.343-1.814-0.19-0.498-0.485-0.949-0.866-1.322-0.37-0.383-0.822-0.676-1.322-0.859-0.58-0.219-1.194-0.338-1.814-0.351-0.791-0.045-1.045-0.045-3.076-0.045s-2.285 0-3.076 0.045c-0.62 0.013-1.234 0.132-1.814 0.351-0.499 0.184-0.951 0.478-1.322 0.859-0.383 0.37-0.676 0.822-0.859 1.322-0.219 0.58-0.338 1.194-0.351 1.814-0.045 0.791-0.045 1.045-0.045 3.076s0 2.285 0.045 3.076c0.013 0.62 0.132 1.234 0.351 1.814 0.182 0.5 0.476 0.952 0.859 1.322 0.371 0.381 0.823 0.675 1.322 0.859 0.58 0.219 1.194 0.338 1.814 0.351 0.791 0.045 1.045 0.045 3.076 0.045s2.285 0 3.076-0.045c0.62-0.013 1.234-0.132 1.814-0.351 0.5-0.182 0.952-0.476 1.322-0.859 0.382-0.371 0.678-0.823 0.866-1.322 0.213-0.582 0.329-1.195 0.343-1.814 0-0.791 0.045-1.045 0.045-3.076s0-2.285-0.045-3.076zM22.082 18.985c-0.005 0.474-0.091 0.944-0.254 1.389-0.119 0.325-0.311 0.619-0.56 0.859-0.242 0.247-0.535 0.438-0.859 0.56-0.445 0.163-0.915 0.248-1.389 0.254-0.747 0.037-1.023 0.045-2.987 0.045s-2.24 0-2.987-0.045c-0.492 0.009-0.982-0.067-1.449-0.224-0.309-0.128-0.589-0.319-0.821-0.56-0.248-0.24-0.437-0.534-0.553-0.859-0.182-0.452-0.283-0.932-0.299-1.419 0-0.747-0.045-1.023-0.045-2.987s0-2.24 0.045-2.987c0.003-0.485 0.092-0.965 0.261-1.419 0.132-0.315 0.333-0.596 0.59-0.821 0.227-0.257 0.507-0.461 0.821-0.597 0.455-0.164 0.935-0.25 1.419-0.254 0.747 0 1.023-0.045 2.987-0.045s2.24 0 2.987 0.045c0.474 0.005 0.944 0.091 1.389 0.254 0.339 0.126 0.644 0.331 0.889 0.597 0.245 0.229 0.436 0.51 0.56 0.821 0.166 0.455 0.252 0.935 0.254 1.419 0.037 0.747 0.045 1.023 0.045 2.987s-0.007 2.24-0.045 2.987zM16.004 12.168c-0.757 0.001-1.497 0.227-2.126 0.649s-1.119 1.020-1.408 1.721c-0.289 0.7-0.364 1.47-0.215 2.212s0.514 1.424 1.050 1.959c0.536 0.535 1.219 0.899 1.961 1.046s1.513 0.071 2.212-0.219c0.699-0.29 1.297-0.781 1.718-1.411s0.645-1.37 0.645-2.127c0.001-0.504-0.098-1.003-0.29-1.469s-0.475-0.889-0.832-1.245c-0.357-0.356-0.78-0.638-1.246-0.83s-0.965-0.289-1.469-0.287zM16.004 18.484c-0.492 0-0.972-0.146-1.381-0.419s-0.728-0.662-0.916-1.116c-0.188-0.454-0.237-0.954-0.142-1.437s0.333-0.925 0.68-1.273c0.348-0.348 0.791-0.585 1.273-0.68s0.982-0.047 1.437 0.142c0.454 0.188 0.843 0.507 1.116 0.916s0.419 0.89 0.419 1.381c0 0.326-0.064 0.65-0.189 0.952s-0.308 0.576-0.539 0.807c-0.231 0.231-0.505 0.414-0.807 0.539s-0.625 0.189-0.952 0.189z"></path>
<path fill="none" stroke="#fdfdff" style="stroke: var(--color1, #fdfdff)" stroke-linejoin="miter" stroke-linecap="butt" stroke-miterlimit="4" stroke-width="0.8" d="M4.8 0.4h22.4c2.43 0 4.4 1.97 4.4 4.4v22.4c0 2.43-1.97 4.4-4.4 4.4h-22.4c-2.43 0-4.4-1.97-4.4-4.4v-22.4c0-2.43 1.97-4.4 4.4-4.4z"></path>
</symbol>
<symbol id="icon-u_instagram" viewBox="0 0 32 32">
<path fill="#fdfdff" style="fill: var(--color1, #fdfdff)" d="M20.532 10.5c-0.748-0.044-2.288-0.088-4.62-0.088h-0.308c-2.244 0-3.74 0.044-4.488 0.132-1.012 0.088-1.716 0.352-2.112 0.704-0.352 0.308-0.616 0.88-0.704 1.628-0.044 0.484-0.088 1.496-0.088 3.036v0.22c0 1.452 0.044 2.464 0.132 2.948 0.132 0.704 0.352 1.232 0.792 1.54 0.44 0.352 1.188 0.572 2.244 0.66 0.748 0.044 2.288 0.088 4.62 0.088h0.308c2.244 0 3.74-0.044 4.488-0.132 1.012-0.088 1.716-0.352 2.112-0.704 0.352-0.308 0.616-0.88 0.704-1.628 0.044-0.484 0.088-1.496 0.088-3.036v-0.22c0-1.452-0.044-2.464-0.132-2.948-0.132-0.704-0.352-1.232-0.792-1.54-0.44-0.352-1.188-0.572-2.244-0.66zM18.816 15.912l-4.84 2.904v-5.808l4.84 2.904z"></path>
<path fill="none" stroke="#fdfdff" style="stroke: var(--color1, #fdfdff)" stroke-linejoin="miter" stroke-linecap="butt" stroke-miterlimit="4" stroke-width="0.8" d="M4.8 0.4h22.4c2.43 0 4.4 1.97 4.4 4.4v22.4c0 2.43-1.97 4.4-4.4 4.4h-22.4c-2.43 0-4.4-1.97-4.4-4.4v-22.4c0-2.43 1.97-4.4 4.4-4.4z"></path>
</symbol>
<symbol id="icon-trash-01" viewBox="0 0 32 32">
<path fill="none" stroke="#fdfdff" style="stroke: var(--color1, #fdfdff)" stroke-linejoin="round" stroke-linecap="round" stroke-miterlimit="4" stroke-width="2.6667" d="M21.333 8v-1.067c0-1.493 0-2.24-0.291-2.811-0.256-0.502-0.664-0.91-1.165-1.165-0.57-0.291-1.317-0.291-2.811-0.291h-2.133c-1.493 0-2.24 0-2.811 0.291-0.502 0.256-0.91 0.664-1.165 1.165-0.291 0.57-0.291 1.317-0.291 2.811v1.067M13.333 15.333v6.667M18.667 15.333v6.667M4 8h24M25.333 8v14.933c0 2.24 0 3.36-0.436 4.216-0.383 0.753-0.995 1.365-1.748 1.748-0.856 0.436-1.976 0.436-4.216 0.436h-5.867c-2.24 0-3.36 0-4.216-0.436-0.753-0.383-1.365-0.995-1.748-1.748-0.436-0.856-0.436-1.976-0.436-4.216v-14.933"></path>
</symbol>
<symbol id="icon-heart" viewBox="0 0 32 32">
<path fill="none" stroke="#fdfdff" style="stroke: var(--color1, #fdfdff)" stroke-linejoin="round" stroke-linecap="round" stroke-miterlimit="4" stroke-width="2.6667" d="M27.787 6.146c-0.681-0.681-1.49-1.222-2.379-1.591s-1.844-0.559-2.807-0.559-1.917 0.19-2.807 0.559c-0.89 0.369-1.699 0.909-2.38 1.591l-1.413 1.413-1.413-1.413c-1.376-1.376-3.241-2.148-5.187-2.148s-3.811 0.773-5.187 2.148c-1.376 1.376-2.148 3.241-2.148 5.187s0.773 3.811 2.148 5.187l11.787 11.787 11.787-11.787c0.681-0.681 1.222-1.49 1.591-2.38s0.559-1.844 0.559-2.807-0.19-1.917-0.559-2.807c-0.369-0.89-0.909-1.699-1.591-2.38z"></path>
</symbol>
<symbol id="icon-cocktail" viewBox="0 0 37 32">
<path fill="#7e8fdd" style="fill: var(--color3, #7e8fdd)" d="M32.894 0.904c-0.072-0.045-0.142-0.080-0.212-0.116-0.86-0.455-1.819-0.691-2.791-0.688h-0.011c-1.063 0.002-2.108 0.283-3.030 0.816s-1.69 1.299-2.227 2.222l-0.016 0.029c-0.435 0.754-0.698 1.595-0.772 2.463l-0.001 0.023h-12.727l-1.424-3.452c-0.32-0.781-0.906-1.423-1.653-1.808s-1.607-0.491-2.425-0.297l0.024-0.005-4.303 0.984 0.266 1.181 4.303-0.984c0.535-0.123 1.097-0.052 1.585 0.201s0.873 0.67 1.085 1.179l0.005 0.016 1.236 2.987h-8.082l13.513 13.591v9.951c-3.138 0.224-5.303 1.269-5.303 2.567v0.241h13.024v-0.241c0-1.296-2.169-2.347-5.303-2.567v-9.951l8.329-8.377c0.261 0.223 0.553 0.429 0.86 0.611l0.029 0.016c1.393 0.797 3.043 1.007 4.59 0.584s2.864-1.444 3.664-2.841 1.018-3.055 0.606-4.613c-0.412-1.558-1.42-2.888-2.804-3.701l-0.029-0.016-0.009-0.003zM34.218 5.58l-3.306 0.009 1.645-2.88c0.899 0.697 1.493 1.718 1.658 2.847l0.003 0.024zM31.517 2.101l-1.645 2.888-1.662-2.871c0.531-0.22 1.101-0.333 1.676-0.331 0.587 0 1.148 0.115 1.661 0.324l-0.029-0.011zM26.067 4.006c0.289-0.505 0.658-0.931 1.094-1.273l0.009-0.007 1.662 2.871-3.298 0.009c0.074-0.599 0.263-1.14 0.544-1.621l-0.011 0.020v0.001zM5.779 7.341h4.721l0.65 1.583h-3.796l-1.575-1.583zM25.524 8.925h-1.078v0.008h-12.002l-0.65-1.583h15.291l-1.562 1.575zM28.236 10.293l1.645-2.888 1.662 2.871c-0.494 0.211-1.070 0.333-1.673 0.333-0.589 0-1.151-0.116-1.664-0.328l0.029 0.012zM33.685 8.397c-0.279 0.491-0.65 0.924-1.092 1.273l-0.009 0.007-1.662-2.871 3.298-0.008c-0.076 0.57-0.261 1.119-0.545 1.619l0.012-0.021-0.001 0.001z"></path>
</symbol>
<symbol id="icon-Off" viewBox="0 0 55 32">
<path fill="#9cdfdf" style="fill: var(--color2, #9cdfdf)" d="M16 2.909c5.623 0 10.182 4.559 10.182 10.182v0.002c0 5.623-4.559 10.182-10.182 10.182s-10.182-4.559-10.182-10.182v-0.002c0-5.623 4.559-10.182 10.182-10.182z"></path>
<path fill="none" stroke="#242424" style="stroke: var(--color4, #242424)" stroke-linejoin="miter" stroke-linecap="butt" stroke-miterlimit="4" stroke-width="1.4545" d="M16 0.727h23.273c6.828 0 12.364 5.535 12.364 12.364s-5.535 12.364-12.364 12.364h-23.273c-6.828 0-12.364-5.535-12.364-12.364s5.535-12.364 12.364-12.364z"></path>
</symbol>
</defs>
</svg>
