<svg aria-hidden="true" style="position:absolute;width:0;height:0" xmlns="http://www.w3.org/2000/svg" overflow="hidden"><defs><symbol id="icon-x_lite" viewBox="0 0 32 32"><path stroke-linejoin="round" stroke-linecap="round" stroke-width="2.667" d="M24 8L8 24M8 8l16 16"/></symbol><symbol id="icon-x" viewBox="0 0 32 32"><path stroke-linejoin="round" stroke-linecap="round" stroke-width="2.667" d="M24 8L8 24M8 8l16 16"/></symbol><symbol id="icon-rafiki" viewBox="0 0 37 32"><path fill="var(--color2, #e6e6e6)" d="M18.903 4.039a.943.943 0 0 0-.896.89h-.118s.035-.814-.896-.857l.005-.129c.074 0 .765-.031.867-.866h.118s-.08.752.92.87v.091zM6.331 17.802a.944.944 0 0 0-.896.89h-.118s.035-.814-.896-.857l.005-.129c.073 0 .765-.031.867-.866h.118s-.08.752.92.87v.091zM37.333 17.302a.945.945 0 0 0-.896.89h-.118s.035-.814-.896-.857l.005-.129c.073 0 .765-.031.867-.866h.118s-.08.752.92.87v.091zM14.052 6.969a.679.679 0 0 0-.645.64h-.084s.025-.585-.645-.616l.003-.093c.053 0 .551-.023.623-.622h.084s-.057.54.661.626v.066h.001zM3.098 13.634a.677.677 0 0 0-.644.64H2.37s.025-.585-.644-.616l.003-.093c.053 0 .551-.023.623-.622h.084s-.057.54.661.626v.066h.001zM12.519 23.968a.679.679 0 0 0-.645.641h-.084s.025-.585-.645-.616l.003-.093c.053 0 .551-.023.623-.622h.084s-.057.541.661.625v.066l.001-.001zM35.043 12.677a.439.439 0 0 0-.417.415h-.055s.016-.379-.417-.4l.003-.06c.035 0 .356-.014.404-.403h.055s-.037.351.428.405v.042zM34.286 24.104a.678.678 0 0 0-.644.64h-.084s.025-.585-.645-.616l.004-.093c.053 0 .551-.023.623-.622h.085s-.057.54.661.625v.066h.001zM13.905.631a.535.535 0 0 0-.507.503h-.067s.019-.46-.506-.485l.003-.073c.041 0 .432-.018.49-.489h.067s-.046.425.519.491v.051h.001zM34.04 2.597a.535.535 0 0 0-.507.503h-.067s.019-.46-.506-.485l.003-.072c.041 0 .433-.018.49-.489h.067s-.046.425.519.491v.051h.001zM10.243 19.317a.311.311 0 0 0-.296.293h-.039s.012-.268-.296-.282l.002-.042c.024 0 .253-.01.286-.286h.039s-.026.248.303.287v.03zM7.246 2.894a.312.312 0 0 0-.296.293h-.039s.012-.268-.296-.282l.002-.042c.024 0 .253-.01.286-.286h.039s-.026.248.303.287v.03zM2.912 23.475a.496.496 0 0 0-.47.466H2.38s.019-.427-.469-.449l.003-.067c.039 0 .401-.016.454-.454h.062s-.042.394.481.455v.048zM33.5 7.692a.312.312 0 0 0-.296.293h-.039s.012-.268-.296-.282l.002-.042c.025 0 .253-.01.286-.286h.039s-.026.248.303.287v.03zM24.994.317a.312.312 0 0 0-.296.293h-.039s.012-.268-.296-.282l.002-.042c.025 0 .253-.01.286-.286h.039s-.026.248.303.287v.03zM17.723 21.694a.312.312 0 0 0-.296.293h-.039s.012-.268-.296-.282l.002-.042c.025 0 .253-.01.286-.286h.039s-.026.248.303.287v.03z"/><path fill="var(--color1, #fdfdff)" d="M35.367 30.541c0 .286-7.899.517-17.644.517S.079 30.826.079 30.541s7.899-.517 17.644-.517c9.744 0 17.644.232 17.644.517z"/><path fill="var(--color3, #9cdfdf)" d="M19.783 9.826s.1 3.674.349 5.581 1.896 15.022 1.896 15.022h4.441V1.966h-3.093v3.209s-2.595.698-2.495 3.768l-1.097.883zM33.156 9.826s-.1 3.674-.349 5.581-1.896 15.022-1.896 15.022h-4.44V1.966h3.093v3.209s2.595.698 2.495 3.768l1.097.883z"/><path fill="var(--color1, #fdfdff)" opacity=".5" d="M19.783 9.826s.1 3.674.349 5.581 1.896 15.022 1.896 15.022h4.441V1.966h-3.093v3.209s-2.595.698-2.495 3.768l-1.097.883zM33.156 9.826s-.1 3.674-.349 5.581-1.896 15.022-1.896 15.022h-4.44V1.966h3.093v3.209s2.595.698 2.495 3.768l1.097.883z"/><path fill="var(--color1, #fdfdff)" opacity=".3" d="M23.955 5.165l-.044-3.199h1.536l-.274 3.199h-1.217zM23.689 9.826h-2.986l2.423 20.604h2.873l-2.31-20.604z"/><path fill="var(--color3, #9cdfdf)" d="M19.783 9.826c4.283-.026 9.089-.026 13.372 0-4.283.026-9.089.026-13.372 0z"/><path fill="var(--color1, #fdfdff)" opacity=".3" d="M22.129 8.92s-.097-1.559.414-2.385 1.412-1.37 1.412-1.37h1.217s-1.796.81-1.526 3.755h-1.518z"/><path fill="var(--color3, #9cdfdf)" d="M4.994 30.43s.391-1.673.559-2.454.335-1.394.335-1.394h2.403s.584 2.636.759 3.703l.023.145h-4.08z"/><path fill="var(--color1, #fdfdff)" opacity=".7" d="M4.994 30.43s.391-1.673.559-2.454.335-1.394.335-1.394h2.403s.584 2.636.759 3.703l.023.145h-4.08z"/><path fill="var(--color1, #fdfdff)" opacity=".4" d="M5.587 30.43l.479-3.473h.74l-.121 3.473H5.587z"/><path fill="var(--color3, #9cdfdf)" d="M4.798 22.147s.084 1.171.307 2.203.475 2.621.475 2.621h2.934s.391-2.175.53-2.705.252-2.119.252-2.119l-4.498.001z"/><path fill="var(--color1, #fdfdff)" opacity=".7" d="M4.798 22.147s.084 1.171.307 2.203.475 2.621.475 2.621h2.934s.391-2.175.53-2.705.252-2.119.252-2.119l-4.498.001z"/><path fill="var(--color4, #242424)" opacity=".3" d="M8.373 26.975H5.764l-.03.211h2.695l-.057-.211z"/><path fill="var(--color1, #fdfdff)" opacity=".4" d="M5.376 22.147l.69 4.809h.74s-.656-4.027-.589-4.809h-.841z"/><path fill="var(--color5, #7e8fdd)" d="M24.632 27.462c.578-2.185-.832-4.451-3.151-5.062s-4.665.665-5.243 2.85c-.578 2.185.833 4.451 3.151 5.062s4.665-.665 5.243-2.85z"/><path fill="var(--color4, #242424)" opacity=".3" d="M24.632 27.462c.578-2.185-.832-4.451-3.151-5.062s-4.665.665-5.243 2.85c-.578 2.185.833 4.451 3.151 5.062s4.665-.665 5.243-2.85z"/><path fill="var(--color5, #7e8fdd)" d="M23.533 28.675c1.319-1.836.897-4.392-.943-5.709s-4.401-.895-5.72.941c-1.319 1.836-.897 4.392.943 5.709s4.401.895 5.72-.941z"/><path fill="var(--color5, #7e8fdd)" d="M20.457 30.204c2.168-.145 3.808-2.016 3.664-4.18s-2.02-3.801-4.188-3.657c-2.168.145-3.808 2.016-3.664 4.18s2.02 3.801 4.188 3.657z"/><path fill="var(--color1, #fdfdff)" opacity=".8" d="M20.457 30.204c2.168-.145 3.808-2.016 3.664-4.18s-2.02-3.801-4.188-3.657c-2.168.145-3.808 2.016-3.664 4.18s2.02 3.801 4.188 3.657z"/><path fill="var(--color5, #7e8fdd)" d="M16.664 25.769c-.1.666-.008 1.346.266 1.962a.224.224 0 0 0 .297.112l.02-.01 2.353-1.368a.1.1 0 0 0 .043-.136.097.097 0 0 0-.066-.051l-2.637-.693a.224.224 0 0 0-.272.159l-.005.025h.001zM19.748 26.719l-2.354 1.367a.223.223 0 0 0-.066.325c.401.541.949.957 1.578 1.2a.224.224 0 0 0 .297-.15l.695-2.629a.1.1 0 0 0-.149-.113v-.001zM20.182 26.908l-.695 2.629a.222.222 0 0 0 .185.277 3.562 3.562 0 0 0 1.965-.266.222.222 0 0 0 .115-.293l-.012-.023-1.371-2.349a.101.101 0 0 0-.187.025v-.001zM17.016 25.301l2.633.693a.103.103 0 0 0 .125-.072.103.103 0 0 0-.01-.077l-1.371-2.349a.224.224 0 0 0-.305-.08l-.02.013c-.542.401-.96.946-1.202 1.574a.223.223 0 0 0 .128.289l.024.008h-.001zM20.622 26.735l1.371 2.349a.223.223 0 0 0 .305.08c.007-.004.014-.008.02-.014.542-.4.96-.947 1.202-1.575a.221.221 0 0 0-.152-.296l-2.634-.694a.102.102 0 1 0-.114.151l.001-.001zM20.204 25.675l.695-2.629a.223.223 0 0 0-.16-.273l-.024-.005a3.557 3.557 0 0 0-1.966.267.223.223 0 0 0-.114.294l.011.022 1.371 2.349a.102.102 0 0 0 .185-.025h.001zM20.638 25.863l2.353-1.368a.221.221 0 0 0 .066-.324 3.562 3.562 0 0 0-1.578-1.2.223.223 0 0 0-.297.151l-.695 2.629a.102.102 0 1 0 .151.114l-.001-.001zM20.811 26.302l2.633.693a.222.222 0 0 0 .272-.157c.003-.008.004-.018.005-.026.1-.666.008-1.346-.265-1.962a.223.223 0 0 0-.316-.101l-2.354 1.367a.101.101 0 0 0-.035.139c.014.023.036.04.062.047z"/><path fill="var(--color1, #fdfdff)" opacity=".3" d="M16.664 25.769c-.1.666-.008 1.346.266 1.963a.224.224 0 0 0 .297.112l.02-.01 2.353-1.368a.1.1 0 0 0 .043-.136.097.097 0 0 0-.066-.051l-2.637-.693a.223.223 0 0 0-.272.159l-.005.024h.001zM19.748 26.719l-2.354 1.367a.223.223 0 0 0-.066.325c.401.541.949.957 1.578 1.2a.224.224 0 0 0 .297-.15l.695-2.629a.1.1 0 0 0-.149-.113v-.001zM20.182 26.908l-.695 2.629a.222.222 0 0 0 .185.277 3.562 3.562 0 0 0 1.965-.266.222.222 0 0 0 .115-.293c-.003-.008-.008-.015-.012-.023l-1.371-2.349a.101.101 0 0 0-.187.025v-.001zM17.016 25.301l2.633.693a.103.103 0 0 0 .125-.072.103.103 0 0 0-.01-.077l-1.371-2.349a.224.224 0 0 0-.305-.08l-.02.013c-.542.401-.96.946-1.202 1.574a.223.223 0 0 0 .128.289l.024.008h-.001zM20.622 26.735l1.371 2.349a.223.223 0 0 0 .305.08c.007-.004.014-.008.02-.014.542-.4.96-.947 1.202-1.575a.221.221 0 0 0-.127-.288c-.008-.003-.016-.006-.025-.007l-2.634-.694a.103.103 0 0 0-.125.072.102.102 0 0 0 .011.078l.001-.001zM20.204 25.675l.695-2.629a.223.223 0 0 0-.16-.273l-.024-.005a3.557 3.557 0 0 0-1.966.267.223.223 0 0 0-.114.294l.011.022 1.371 2.349a.102.102 0 0 0 .185-.025h.001zM20.638 25.863l2.353-1.368a.221.221 0 0 0 .08-.304c-.004-.007-.008-.014-.014-.02a3.562 3.562 0 0 0-1.578-1.2.223.223 0 0 0-.297.151l-.695 2.628a.102.102 0 1 0 .151.114l-.001-.001zM20.811 26.302l2.633.693a.222.222 0 0 0 .272-.157c.003-.008.004-.018.005-.026.1-.666.008-1.346-.265-1.962a.223.223 0 0 0-.316-.101l-2.354 1.367a.101.101 0 0 0 .027.185z"/><path fill="var(--color5, #7e8fdd)" d="M18.225 26.48c.112-.014.209.017.216.071s-.079.109-.191.123c-.112.014-.209-.017-.216-.071s.078-.11.191-.123z"/><path fill="var(--color1, #fdfdff)" opacity=".6" d="M18.225 26.48c.112-.014.209.017.216.071s-.079.109-.191.123c-.112.014-.209-.017-.216-.071s.078-.11.191-.123z"/><path fill="var(--color5, #7e8fdd)" d="M18.904 27.57c.084-.075.182-.103.218-.063s-.003.134-.088.209c-.085.074-.182.104-.219.063s.006-.131.089-.209z"/><path fill="var(--color1, #fdfdff)" opacity=".6" d="M18.904 27.57c.084-.075.182-.103.218-.063s-.003.134-.088.209c-.085.074-.182.104-.219.063s.006-.131.089-.209z"/><path fill="var(--color5, #7e8fdd)" d="M18.861 28.475c.067-.091.156-.14.199-.108s.025.131-.04.223-.155.14-.199.108c-.044-.032-.026-.131.04-.223z"/><path fill="var(--color1, #fdfdff)" opacity=".6" d="M18.861 28.475c.067-.091.156-.14.199-.108s.025.131-.04.223-.155.14-.199.108c-.044-.032-.026-.131.04-.223z"/><path fill="var(--color5, #7e8fdd)" d="M21.355 24.023c.061-.096.146-.15.192-.122s.035.129-.025.226c-.06.097-.146.15-.192.122s-.033-.128.025-.226z"/><path fill="var(--color1, #fdfdff)" opacity=".6" d="M21.355 24.023c.061-.096.146-.15.192-.122s.035.129-.025.226c-.06.097-.146.15-.192.122s-.033-.128.025-.226z"/><path fill="var(--color5, #7e8fdd)" d="M21.331 24.907c.066-.092.155-.14.199-.109s.025.131-.041.223-.155.14-.199.109-.026-.131.041-.223z"/><path fill="var(--color1, #fdfdff)" opacity=".6" d="M21.331 24.907c.066-.092.155-.14.199-.109s.025.131-.041.223-.155.14-.199.109-.026-.131.041-.223zM22.502 26.111c.111-.018.209.011.218.064s-.075.11-.188.129c-.112.019-.209-.011-.218-.064s.074-.111.188-.129zM18.237 24.639c-.072-.088-.096-.186-.053-.22s.134.01.205.097c.072.088.095.186.053.22s-.133-.009-.205-.097zM18.506 25.375c-.113-.006-.202-.056-.199-.109s.098-.092.21-.086c.113.006.202.056.199.11s-.097.093-.21.086v-.001zM19.563 23.987c-.012-.112.024-.207.077-.213.053-.005.107.082.117.194s-.024.207-.077.213c-.053.005-.107-.081-.117-.194z"/><path fill="var(--color5, #7e8fdd)" d="M20.719 28.754c-.012-.111.022-.207.074-.213s.106.081.119.194c.013.112-.022.207-.074.213s-.107-.081-.119-.194z"/><path fill="var(--color1, #fdfdff)" opacity=".6" d="M20.719 28.754c-.012-.111.022-.207.074-.213s.106.081.119.194c.013.112-.022.207-.074.213s-.107-.081-.119-.194z"/><path fill="var(--color5, #7e8fdd)" d="M21.595 27.356c-.095-.063-.146-.15-.117-.195s.131-.031.225.031c.095.062.146.149.117.195s-.132.03-.225-.031z"/><path fill="var(--color1, #fdfdff)" opacity=".6" d="M21.595 27.356c-.095-.063-.146-.15-.117-.195s.131-.031.225.031c.095.062.146.149.117.195s-.132.03-.225-.031z"/><path fill="var(--color5, #7e8fdd)" d="M22.377 10.996H6.5s.091 4.781 5.064 5.828c0 0-.33 3.322 2.464 3.659v7.954c-2.952.189-4.185 1.994-4.185 1.994h9.555s-1.395-1.806-4.366-1.994v-7.979c2.599-.456 2.282-3.633 2.282-3.633 4.973-1.047 5.064-5.828 5.064-5.828v-.001z"/><path fill="var(--color1, #fdfdff)" opacity=".7" d="M22.377 10.996H6.5s.091 4.781 5.064 5.828c0 0-.33 3.322 2.464 3.659v7.954c-2.952.189-4.185 1.994-4.185 1.994h9.555s-1.395-1.806-4.366-1.994v-7.979c2.599-.456 2.282-3.633 2.282-3.633 4.973-1.047 5.064-5.828 5.064-5.828v-.001z"/><path fill="var(--color1, #fdfdff)" opacity=".4" d="M21.539 10.996H7.742s.145 4.25 4.467 5.164c0 0-.473 3.613 2.35 3.613h.209c2.259-.398 2.004-3.708 2.004-3.708 4.562-1.133 4.768-5.07 4.768-5.07h-.001z"/><path fill="var(--color5, #7e8fdd)" opacity=".9" d="M22.377 10.996c0 .305-3.554.553-7.938.553s-7.938-.248-7.938-.553 3.554-.553 7.938-.553 7.938.248 7.938.553z"/><path fill="var(--color1, #fdfdff)" opacity=".7" d="M22.377 10.996c0 .305-3.554.553-7.938.553s-7.938-.248-7.938-.553 3.554-.553 7.938-.553 7.938.248 7.938.553z"/><path fill="var(--color5, #7e8fdd)" opacity=".9" d="M20.412 13.819c-.678 1.098-1.93 1.822-3.641 2.247 0 0 .255 3.311-2.004 3.708h-.209c-2.823 0-2.35-3.613-2.35-3.613-1.621-.343-2.869-1.079-3.565-2.407 0 0 2.254-.159 4.233.156s3.262.561 5.287.18a15.847 15.847 0 0 1 2.248-.271l.001.001z"/><path fill="var(--color4, #242424)" opacity=".3" d="M8.643 13.753s2.875 1.315 6.949 1.064 4.82-.998 4.82-.998-1.227.028-2.249.271c-1.021.243-2.619.191-3.324.11-.686-.078-3.651-.683-6.197-.446v-.001z"/><path fill="var(--color5, #7e8fdd)" d="M11.388 15.546L3.005 4.518l.417-.344 8.441 11.073s.007.405-.476.299v-.001z"/><path fill="var(--color4, #242424)" opacity=".3" d="M11.388 15.546L3.005 4.518l.417-.344 8.441 11.073s.007.405-.476.299v-.001z"/><path fill="var(--color5, #7e8fdd)" d="M10.645 8.279a4.063 4.063 0 0 0-.182-.3c-1.27-1.902-3.758-2.473-5.557-1.276s-2.227 3.71-.957 5.61c.065.099.135.192.208.284l6.489-4.319z"/><path fill="var(--color4, #242424)" opacity=".3" d="M10.645 8.279a4.063 4.063 0 0 0-.182-.3c-1.27-1.902-3.758-2.473-5.557-1.276s-2.227 3.71-.957 5.61c.065.099.135.192.208.284l6.489-4.319z"/><path fill="var(--color5, #7e8fdd)" d="M10.655 8.273l-.064-.102c-1.199-1.796-3.63-2.28-5.429-1.083s-2.285 3.623-1.085 5.418l.069.099 6.509-4.332z"/><path fill="var(--color1, #fdfdff)" opacity=".8" d="M10.519 8.358a3.762 3.762 0 0 0-5.271-1.135 3.746 3.746 0 0 0-1.042 5.201c.022.032.044.062.063.092l6.25-4.157z"/><path fill="var(--color5, #7e8fdd)" d="M7.736 9.911l2.16-1.443a.214.214 0 0 0 .056-.298c-.003-.006-.008-.011-.012-.016a3.396 3.396 0 0 0-1.574-1.052.215.215 0 0 0-.268.138l-.006.023-.509 2.545a.098.098 0 0 0 .075.117c.027.006.056 0 .079-.016v.002zM7.312 9.756l.51-2.546a.212.212 0 0 0-.19-.253 3.4 3.4 0 0 0-1.858.368.211.211 0 0 0-.08.307L7.14 9.794a.099.099 0 0 0 .173-.036zM6.747 10.37l-2.551-.51a.214.214 0 0 0-.255.192 3.389 3.389 0 0 0 .368 1.855.213.213 0 0 0 .287.092c.007-.003.014-.008.02-.012l2.164-1.441a.098.098 0 0 0-.035-.174l.001-.001zM6.902 9.945l-1.444-2.16a.215.215 0 0 0-.298-.056c-.006.003-.011.008-.016.012A3.384 3.384 0 0 0 4.09 9.312a.214.214 0 0 0 .139.268c.007.003.014.004.022.006l2.55.508a.097.097 0 0 0 .113-.081.098.098 0 0 0-.014-.069h.002z"/><path fill="var(--color1, #fdfdff)" opacity=".3" d="M7.736 9.911l2.16-1.443a.214.214 0 0 0 .056-.298c-.003-.006-.008-.011-.012-.016a3.396 3.396 0 0 0-1.574-1.052.215.215 0 0 0-.268.138l-.006.023-.509 2.545a.098.098 0 0 0 .075.117c.027.006.056 0 .079-.016v.002zM7.312 9.756l.51-2.546a.212.212 0 0 0-.19-.253 3.4 3.4 0 0 0-1.858.368.211.211 0 0 0-.08.307L7.14 9.794a.099.099 0 0 0 .173-.036zM6.747 10.37l-2.551-.51a.214.214 0 0 0-.255.192 3.389 3.389 0 0 0 .368 1.855.213.213 0 0 0 .287.092c.007-.003.014-.008.02-.012l2.164-1.441a.098.098 0 0 0-.035-.174l.001-.001zM6.902 9.945l-1.444-2.16a.215.215 0 0 0-.298-.056c-.006.003-.011.008-.016.012A3.384 3.384 0 0 0 4.09 9.312a.214.214 0 0 0 .139.268c.007.003.014.004.022.006l2.55.508a.097.097 0 0 0 .113-.081.098.098 0 0 0-.014-.069h.002z"/><path fill="var(--color5, #7e8fdd)" d="M5.067 11.231c-.104.031-.199.016-.214-.033s.057-.116.16-.146c.104-.031.2-.015.215.035s-.058.116-.16.145l-.001-.001z"/><path fill="var(--color1, #fdfdff)" opacity=".6" d="M5.067 11.231c-.104.031-.199.016-.214-.033s.057-.116.16-.146c.104-.031.2-.015.215.035s-.058.116-.16.145l-.001-.001z"/><path fill="var(--color5, #7e8fdd)" d="M5.646 10.615c-.106.024-.201.003-.211-.048s.062-.112.169-.132c.107-.02.201-.003.212.049s-.064.109-.17.132v-.001z"/><path fill="var(--color1, #fdfdff)" opacity=".6" d="M5.646 10.615c-.106.024-.201.003-.211-.048s.062-.112.169-.132c.107-.02.201-.003.212.049s-.064.109-.17.132v-.001z"/><path fill="var(--color5, #7e8fdd)" d="M8.524 8.252c-.063.087-.149.135-.191.105s-.024-.126.037-.213.148-.135.19-.105c.042.03.025.126-.036.214z"/><path fill="var(--color1, #fdfdff)" opacity=".6" d="M8.524 8.252c-.063.087-.149.135-.191.105s-.024-.126.037-.213.148-.135.19-.105c.042.03.025.126-.036.214zM5.691 9.095c.08.073.118.163.083.201s-.128.011-.208-.061c-.08-.072-.117-.162-.083-.201s.128-.011.208.061z"/><path fill="var(--color5, #7e8fdd)" d="M5.369 6.007a.841.841 0 1 1-1.674.166.841.841 0 0 1 1.674-.166z"/><path fill="var(--color1, #fdfdff)" opacity=".3" d="M3.882 5.766s-.202.328-.024.649.438.384.438.384.005-.325-.02-.639-.394-.395-.394-.395h.001z"/><path fill="var(--color1, #fdfdff)" opacity=".27" d="M21.512 11.282c-4.463.361-9.048.348-13.743.002 0 0 .012 2.129 1.872 3.71.622.529 1.492.937 2.574 1.165 0 0-.473 3.613 2.35 3.613h.209c2.259-.398 2.004-3.708 2.004-3.708 1.011-.251 1.803-.53 2.431-.983 2.207-1.592 2.304-3.8 2.304-3.8z"/><path fill="var(--color3, #9cdfdf)" d="M22.377 10.996c-.005.044-.052.064-.087.082-.271.109-.568.137-.855.18-.993.124-1.994.175-2.994.22-3.663.12-7.35.156-10.999-.22-.287-.043-.584-.072-.855-.18-.035-.019-.081-.039-.087-.082.005.044.052.063.087.082.271.108.568.136.855.178 3.651.366 7.335.315 10.999.212.999-.042 2-.091 2.994-.212.287-.042.584-.07.855-.178.035-.019.081-.038.087-.082z"/><path fill="var(--color4, #242424)" opacity=".3" d="M14.028 20.482v.21s.547.105 1.003-.032v-.203c-.371.091-.593.087-.981.03z"/><path fill="var(--color3, #9cdfdf)" d="M13.02 28.593a6.196 6.196 0 0 1 2.837-.071 7.025 7.025 0 0 0-2.837.071z"/><path fill="var(--color1, #fdfdff)" opacity=".3" d="M14.438 17.242a.228.228 0 1 0 0-.455.228.228 0 0 0 0 .455zM13.8 17.766a.174.174 0 1 1-.348 0 .174.174 0 0 1 .348 0zM15.96 18.303a.11.11 0 1 0 0-.222.11.11 0 1 0 0 .222zM13.477 16.855a.11.11 0 1 0 0-.222.11.11 0 1 0 0 .222zM15.503 18.719a.281.281 0 1 1-.562 0 .281.281 0 0 1 .562 0z"/></symbol><symbol id="icon-chevron-up" viewBox="0 0 32 32"><path  stroke-linejoin="round" stroke-linecap="round" stroke-width="2.667" d="M8 12l8 8 8-8"/></symbol><symbol id="icon-chevron-down" viewBox="0 0 32 32"><path  stroke-linejoin="round" stroke-linecap="round" stroke-width="2.667" d="M8 20l8-8 8 8"/></symbol><symbol id="icon-align-justify" viewBox="0 0 32 32"><path  stroke-linejoin="round" stroke-linecap="round" stroke-width="1.6" d="M28 13.333H4M28 8H4M28 18.667H4M28 24H4"/></symbol><symbol id="icon-On" viewBox="0 0 60 32"><path fill="var(--color3, #9cdfdf)" d="M16 .889h28.444C52.79.889 59.555 7.654 59.555 16S52.79 31.111 44.444 31.111H16C7.654 31.111.889 24.346.889 16S7.654.889 16 .889z"/><path fill="var(--color1, #fdfdff)" d="M44.444 3.556c6.873 0 12.444 5.572 12.444 12.444v.002c0 6.873-5.572 12.444-12.444 12.444S32 22.874 32 16.002V16c0-6.873 5.572-12.444 12.444-12.444z"/><path fill="none" stroke="var(--color5, #7e8fdd)" stroke-width="1.778" d="M16 .889h28.444C52.79.889 59.555 7.654 59.555 16S52.79 31.111 44.444 31.111H16C7.654 31.111.889 24.346.889 16S7.654.889 16 .889z"/></symbol><symbol id="icon-search" viewBox="0 0 32 32"><path d="M29.092 31.514l-6.85-6.862c-1.077.935-2.334 1.663-3.77 2.185s-2.962.782-4.578.782c-3.877 0-7.163-1.349-9.855-4.046S0 17.621 0 13.809c0-3.812 1.346-7.067 4.039-9.764S9.999-.001 13.84-.001c3.806 0 7.046 1.349 9.721 4.046s4.012 5.952 4.012 9.764c0 1.546-.251 3.039-.754 4.477s-1.257 2.787-2.262 4.046l6.958 6.862c.323.288.485.656.485 1.106s-.18.854-.539 1.214c-.323.324-.718.486-1.185.486s-.862-.162-1.185-.486zM13.84 24.383c2.908 0 5.385-1.034 7.432-3.102s3.07-4.558 3.07-7.471-1.023-5.403-3.07-7.471c-2.046-2.068-4.524-3.102-7.432-3.102-2.944 0-5.448 1.034-7.513 3.102S3.23 10.897 3.23 13.81c0 2.913 1.032 5.403 3.097 7.471s4.569 3.102 7.513 3.102z"/></symbol><symbol id="icon-u_facebook-f" viewBox="0 0 32 32"><path fill="var(--color1, #fdfdff)" d="M18.425 10.801h1.462V8.328a20.221 20.221 0 0 0-2.131-.109c-2.116 0-3.562 1.291-3.562 3.656v2.038h-2.388v2.769h2.388v7.093h2.862v-7.093h2.38l.358-2.769h-2.738v-1.766c0-.817.218-1.346 1.369-1.346z"/><path fill="none" stroke="var(--color1, #fdfdff)" stroke-width=".8" d="M4.8.4h22.4a4.4 4.4 0 0 1 4.4 4.4v22.4a4.4 4.4 0 0 1-4.4 4.4H4.8a4.4 4.4 0 0 1-4.4-4.4V4.8A4.4 4.4 0 0 1 4.8.4z"/></symbol><symbol id="icon-u_instagram-1" viewBox="0 0 32 32"><path fill="var(--color1, #fdfdff)" d="M19.991 11.115a.902.902 0 0 0-.828.553.892.892 0 0 0 .194.977.892.892 0 0 0 .977.194.895.895 0 0 0-.343-1.724zm3.435 1.807a5.646 5.646 0 0 0-.343-1.814 3.69 3.69 0 0 0-.866-1.322 3.518 3.518 0 0 0-1.322-.859 5.462 5.462 0 0 0-1.814-.351c-.791-.045-1.045-.045-3.076-.045s-2.285 0-3.076.045a5.462 5.462 0 0 0-1.814.351 3.57 3.57 0 0 0-1.322.859c-.383.37-.676.822-.859 1.322a5.462 5.462 0 0 0-.351 1.814c-.045.791-.045 1.045-.045 3.076s0 2.285.045 3.076c.013.62.132 1.234.351 1.814.182.5.476.952.859 1.322a3.57 3.57 0 0 0 1.322.859c.58.219 1.194.338 1.814.351.791.045 1.045.045 3.076.045s2.285 0 3.076-.045a5.462 5.462 0 0 0 1.814-.351c.5-.182.952-.476 1.322-.859.382-.371.678-.823.866-1.322a5.65 5.65 0 0 0 .343-1.814c0-.791.045-1.045.045-3.076s0-2.285-.045-3.076zm-1.344 6.063a4.167 4.167 0 0 1-.254 1.389 2.286 2.286 0 0 1-.56.859 2.373 2.373 0 0 1-.859.56 4.193 4.193 0 0 1-1.389.254c-.747.037-1.023.045-2.987.045s-2.24 0-2.987-.045a4.3 4.3 0 0 1-1.449-.224 2.433 2.433 0 0 1-.821-.56 2.245 2.245 0 0 1-.553-.859 4.164 4.164 0 0 1-.299-1.419c0-.747-.045-1.023-.045-2.987s0-2.24.045-2.987a4.14 4.14 0 0 1 .261-1.419 2.24 2.24 0 0 1 .59-.821c.227-.257.507-.461.821-.597a4.29 4.29 0 0 1 1.419-.254c.747 0 1.023-.045 2.987-.045s2.24 0 2.987.045c.474.005.944.091 1.389.254.339.126.644.331.889.597.245.229.436.51.56.821.166.455.252.935.254 1.419.037.747.045 1.023.045 2.987s-.007 2.24-.045 2.987zm-6.078-6.817a3.826 3.826 0 0 0-3.534 2.37 3.824 3.824 0 0 0 .835 4.171 3.83 3.83 0 0 0 6.246-4.18 3.831 3.831 0 0 0-3.547-2.362zm0 6.316a2.487 2.487 0 1 1 .003-4.975 2.487 2.487 0 0 1-.004 4.976z"/><path fill="none" stroke="var(--color1, #fdfdff)" stroke-width=".8" d="M4.8.4h22.4a4.4 4.4 0 0 1 4.4 4.4v22.4a4.4 4.4 0 0 1-4.4 4.4H4.8a4.4 4.4 0 0 1-4.4-4.4V4.8A4.4 4.4 0 0 1 4.8.4z"/></symbol><symbol id="icon-u_instagram" viewBox="0 0 32 32"><path fill="var(--color1, #fdfdff)" d="M20.532 10.5c-.748-.044-2.288-.088-4.62-.088h-.308c-2.244 0-3.74.044-4.488.132-1.012.088-1.716.352-2.112.704-.352.308-.616.88-.704 1.628-.044.484-.088 1.496-.088 3.036v.22c0 1.452.044 2.464.132 2.948.132.704.352 1.232.792 1.54.44.352 1.188.572 2.244.66.748.044 2.288.088 4.62.088h.308c2.244 0 3.74-.044 4.488-.132 1.012-.088 1.716-.352 2.112-.704.352-.308.616-.88.704-1.628.044-.484.088-1.496.088-3.036v-.22c0-1.452-.044-2.464-.132-2.948-.132-.704-.352-1.232-.792-1.54-.44-.352-1.188-.572-2.244-.66zm-1.716 5.412l-4.84 2.904v-5.808l4.84 2.904z"/><path fill="none" stroke="var(--color1, #fdfdff)" stroke-width=".8" d="M4.8.4h22.4a4.4 4.4 0 0 1 4.4 4.4v22.4a4.4 4.4 0 0 1-4.4 4.4H4.8a4.4 4.4 0 0 1-4.4-4.4V4.8A4.4 4.4 0 0 1 4.8.4z"/></symbol><symbol id="icon-trash-01" viewBox="0 0 32 32"><path fill="none" stroke="var(--color1, #fdfdff)" stroke-linejoin="round" stroke-linecap="round" stroke-width="2.667" d="M21.333 8V6.933c0-1.493 0-2.24-.291-2.811a2.666 2.666 0 0 0-1.165-1.165c-.57-.291-1.317-.291-2.811-.291h-2.133c-1.493 0-2.24 0-2.811.291-.502.256-.91.664-1.165 1.165-.291.57-.291 1.317-.291 2.811V8m2.667 7.333V22m5.334-6.667V22M4 8h24m-2.667 0v14.933c0 2.24 0 3.36-.436 4.216a3.991 3.991 0 0 1-1.748 1.748c-.856.436-1.976.436-4.216.436h-5.867c-2.24 0-3.36 0-4.216-.436a3.991 3.991 0 0 1-1.748-1.748c-.436-.856-.436-1.976-.436-4.216V8"/></symbol><symbol id="icon-heart" viewBox="0 0 32 32"><path fill="none" stroke="var(--color1, #fdfdff)" stroke-linejoin="round" stroke-linecap="round" stroke-width="2.667" d="M27.787 6.146a7.326 7.326 0 0 0-10.373 0l-1.413 1.413-1.413-1.413a7.333 7.333 0 0 0-10.374 0 7.333 7.333 0 0 0 0 10.374l11.787 11.787L27.788 16.52a7.345 7.345 0 0 0 2.15-5.187 7.33 7.33 0 0 0-2.15-5.187z"/></symbol><symbol id="icon-cocktail" viewBox="0 0 37 32"><path d="M32.894.904c-.072-.045-.142-.08-.212-.116A5.93 5.93 0 0 0 29.891.1h-.011c-1.063.002-2.108.283-3.03.816s-1.69 1.299-2.227 2.222l-.016.029a5.937 5.937 0 0 0-.772 2.463l-.001.023H11.107L9.683 2.201C9.363 1.42 8.777.778 8.03.393S6.423-.098 5.605.096l.024-.005-4.303.984.266 1.181 4.303-.984c.535-.123 1.097-.052 1.585.201s.873.67 1.085 1.179l.005.016 1.236 2.987H1.724l13.513 13.591v9.951c-3.138.224-5.303 1.269-5.303 2.567v.241h13.024v-.241c0-1.296-2.169-2.347-5.303-2.567v-9.951l8.329-8.377c.261.223.553.429.86.611l.029.016c1.393.797 3.043 1.007 4.59.584s2.864-1.444 3.664-2.841 1.018-3.055.606-4.613A6.098 6.098 0 0 0 32.929.925L32.9.909l-.009-.003zm1.324 4.676l-3.306.009 1.645-2.88a4.408 4.408 0 0 1 1.658 2.847l.003.024zm-2.701-3.479l-1.645 2.888-1.662-2.871a4.341 4.341 0 0 1 1.676-.331c.587 0 1.148.115 1.661.324l-.029-.011zm-5.45 1.905a4.353 4.353 0 0 1 1.094-1.273l.009-.007 1.662 2.871-3.298.009a4.21 4.21 0 0 1 .544-1.621l-.011.02v.001zM5.779 7.341H10.5l.65 1.583H7.354L5.779 7.341zm19.745 1.584h-1.078v.008H12.444l-.65-1.583h15.291l-1.562 1.575zm2.712 1.368l1.645-2.888 1.662 2.871a4.29 4.29 0 0 1-1.673.333 4.346 4.346 0 0 1-1.664-.328l.029.012zm5.449-1.896c-.279.491-.65.924-1.092 1.273l-.009.007-1.662-2.871 3.298-.008a4.473 4.473 0 0 1-.545 1.619l.012-.021-.001.001z"/></symbol><symbol id="icon-Off" viewBox="0 0 55 32"><path fill="var(--color3, #9cdfdf)" d="M16 2.909c5.623 0 10.182 4.559 10.182 10.182v.002c0 5.623-4.559 10.182-10.182 10.182S5.818 18.716 5.818 13.093v-.002C5.818 7.468 10.377 2.909 16 2.909z"/><path fill="none" stroke="var(--color4, #242424)" stroke-width="1.454" d="M16 .727h23.273c6.828 0 12.364 5.535 12.364 12.364s-5.535 12.364-12.364 12.364H16c-6.828 0-12.364-5.535-12.364-12.364S9.171.727 16 .727z"/></symbol><symbol id="icon-close" viewBox="0 0 20 20"><path d="M10 8.586L2.929 1.515 1.515 2.929 8.586 10l-7.071 7.071 1.414 1.414L10 11.414l7.071 7.071 1.414-1.414L11.414 10l7.071-7.071-1.414-1.414L10 8.586z"/></symbol><symbol id="icon-star_combo_7" viewBox="0 0 32 32"><path d="M7.217 20.549a12.433 12.433 0 0 1 13.332 4.076 12.433 12.433 0 0 1 4.076-13.332 12.433 12.433 0 0 1-13.332-4.076 12.433 12.433 0 0 1-4.076 13.332zm-1.791.71a11.996 11.996 0 0 0 4.779-15.632l.377-.201a11.996 11.996 0 0 0 15.632 4.779l.201.377a11.996 11.996 0 0 0-4.779 15.632l-.377.201a11.996 11.996 0 0 0-15.632-4.779l-.201-.378z"/><path d="M21.015 22.537c.291 1.034.442 1.884.45 2.499.004.309-.028.535-.08.688-.051.151-.109.197-.139.213s-.101.038-.254-.004c-.156-.043-.361-.143-.615-.319-.506-.351-1.126-.951-1.82-1.771-1.384-1.634-3.002-4.071-4.519-6.922s-2.631-5.556-3.212-7.617c-.291-1.034-.442-1.884-.45-2.499-.004-.309.028-.535.079-.688.051-.151.109-.197.139-.213s.101-.038.254.004c.156.043.361.143.615.319.506.351 1.126.951 1.82 1.771 1.384 1.634 3.002 4.071 4.519 6.922s2.631 5.556 3.212 7.617zm.432 3.778c1.248-.664-.215-5.855-3.267-11.595s-6.538-9.856-7.786-9.193.215 5.855 3.267 11.595 6.538 9.856 7.786 9.193z"/><path d="M9.305 21.015c-1.034.291-1.884.442-2.499.45-.309.004-.535-.028-.688-.08-.151-.051-.197-.109-.213-.139s-.038-.101.004-.254c.043-.156.143-.361.319-.615.351-.506.951-1.126 1.771-1.82 1.634-1.384 4.071-3.002 6.922-4.518s5.556-2.631 7.617-3.212c1.034-.291 1.884-.442 2.499-.45.309-.004.535.028.688.079.151.051.197.109.213.139s.038.101-.004.254c-.043.156-.143.361-.319.615-.352.506-.951 1.126-1.771 1.82-1.634 1.384-4.071 3.002-6.922 4.518s-5.556 2.631-7.617 3.212zm-3.778.432c.664 1.248 5.855-.215 11.596-3.267s9.856-6.538 9.193-7.786-5.855.215-11.595 3.267-9.856 6.538-9.193 7.786z"/></symbol><symbol id="icon-Ellipse-14" viewBox="0 0 30 32"><path fill="var(--color1, #7e8fdd)" d="M30.316 16.278c0 8.371-6.786 15.158-15.158 15.158S0 24.65 0 16.278C0 7.907 6.786 1.12 15.158 1.12s15.158 6.786 15.158 15.158z"/></symbol></defs></svg>