<svg aria-hidden="true" style="position: absolute; width: 0; height: 0; overflow: hidden;" version="1.1" xmlns="http://www.w3.org/2000/svg" xmlns:xlink="http://www.w3.org/1999/xlink">
<defs>
<symbol id="icon-x_lite" viewBox="0 0 32 32">
<path fill="none" stroke="#fdfdff" style="stroke:" stroke-linejoin="round" stroke-linecap="round" stroke-miterlimit="4" stroke-width="2.6667" d="M24 8l-16 16"></path>
<path fill="none" stroke="#fdfdff" style="stroke:" stroke-linejoin="round" stroke-linecap="round" stroke-miterlimit="4" stroke-width="2.6667" d="M8 8l16 16"></path>
</symbol>
<symbol id="icon-x" viewBox="0 0 32 32">
<path stroke-linejoin="round" stroke-linecap="round" stroke-miterlimit="4" stroke-width="2.6667" d="M24 8l-16 16"></path>
<path stroke-linejoin="round" stroke-linecap="round" stroke-miterlimit="4" stroke-width="2.6667" d="M8 8l16 16"></path>
</symbol>
<symbol id="icon-rafiki" viewBox="0 0 37 32">
<path fill="#e6e6e6" style="fill: var(--color2, #e6e6e6)" d="M18.903 4.039c-0.074 0-0.795 0.056-0.896 0.89h-0.118c0 0 0.035-0.814-0.896-0.857l0.005-0.129c0.074 0 0.765-0.031 0.867-0.866h0.118c0 0-0.080 0.752 0.92 0.87v0.091z"></path>
<path fill="#e6e6e6" style="fill: var(--color2, #e6e6e6)" d="M6.331 17.802c-0.074 0-0.795 0.057-0.896 0.89h-0.118c0 0 0.035-0.814-0.896-0.857l0.005-0.129c0.073 0 0.765-0.031 0.867-0.866h0.118c0 0-0.080 0.752 0.92 0.87v0.091z"></path>
<path fill="#e6e6e6" style="fill: var(--color2, #e6e6e6)" d="M37.333 17.302c-0.073 0-0.795 0.057-0.896 0.89h-0.118c0 0 0.035-0.814-0.896-0.857l0.005-0.129c0.073 0 0.765-0.031 0.867-0.866h0.118c0 0-0.080 0.752 0.92 0.87v0.091z"></path>
<path fill="#e6e6e6" style="fill: var(--color2, #e6e6e6)" d="M14.052 6.969c-0.053 0-0.572 0.040-0.645 0.64h-0.084c0 0 0.025-0.585-0.645-0.616l0.003-0.093c0.053 0 0.551-0.023 0.623-0.622h0.084c0 0-0.057 0.54 0.661 0.626v0.066h0.001z"></path>
<path fill="#e6e6e6" style="fill: var(--color2, #e6e6e6)" d="M3.098 13.634c-0.053 0-0.572 0.040-0.644 0.64h-0.084c0 0 0.025-0.585-0.644-0.616l0.003-0.093c0.053 0 0.551-0.023 0.623-0.622h0.084c0 0-0.057 0.54 0.661 0.626v0.066h0.001z"></path>
<path fill="#e6e6e6" style="fill: var(--color2, #e6e6e6)" d="M12.519 23.968c-0.053 0-0.572 0.040-0.645 0.641h-0.084c0 0 0.025-0.585-0.645-0.616l0.003-0.093c0.053 0 0.551-0.023 0.623-0.622h0.084c0 0-0.057 0.541 0.661 0.625v0.066l0.001-0.001z"></path>
<path fill="#e6e6e6" style="fill: var(--color2, #e6e6e6)" d="M35.043 12.677c-0.035 0-0.37 0.026-0.417 0.415h-0.055c0 0 0.016-0.379-0.417-0.4l0.003-0.060c0.035 0 0.356-0.014 0.404-0.403h0.055c0 0-0.037 0.351 0.428 0.405v0.042z"></path>
<path fill="#e6e6e6" style="fill: var(--color2, #e6e6e6)" d="M34.286 24.104c-0.053 0-0.571 0.040-0.644 0.64h-0.084c0 0 0.025-0.585-0.645-0.616l0.004-0.093c0.053 0 0.551-0.023 0.623-0.622h0.085c0 0-0.057 0.54 0.661 0.625v0.066h0.001z"></path>
<path fill="#e6e6e6" style="fill: var(--color2, #e6e6e6)" d="M13.905 0.631c-0.041 0-0.449 0.032-0.507 0.503h-0.067c0 0 0.019-0.46-0.506-0.485l0.003-0.073c0.041 0 0.432-0.018 0.49-0.489h0.067c0 0-0.046 0.425 0.519 0.491v0.051h0.001z"></path>
<path fill="#e6e6e6" style="fill: var(--color2, #e6e6e6)" d="M34.040 2.597c-0.041 0-0.449 0.032-0.507 0.503h-0.067c0 0 0.019-0.46-0.506-0.485l0.003-0.072c0.041 0 0.433-0.018 0.49-0.489h0.067c0 0-0.046 0.425 0.519 0.491v0.051h0.001z"></path>
<path fill="#e6e6e6" style="fill: var(--color2, #e6e6e6)" d="M10.243 19.317c-0.024 0-0.262 0.018-0.296 0.293h-0.039c0 0 0.012-0.268-0.296-0.282l0.002-0.042c0.024 0 0.253-0.010 0.286-0.286h0.039c0 0-0.026 0.248 0.303 0.287v0.030z"></path>
<path fill="#e6e6e6" style="fill: var(--color2, #e6e6e6)" d="M7.246 2.894c-0.024 0-0.262 0.019-0.296 0.293h-0.039c0 0 0.012-0.268-0.296-0.282l0.002-0.042c0.024 0 0.253-0.010 0.286-0.286h0.039c0 0-0.026 0.248 0.303 0.287v0.030z"></path>
<path fill="#e6e6e6" style="fill: var(--color2, #e6e6e6)" d="M2.912 23.475c-0.039 0-0.416 0.030-0.47 0.466h-0.062c0 0 0.019-0.427-0.469-0.449l0.003-0.067c0.039 0 0.401-0.016 0.454-0.454h0.062c0 0-0.042 0.394 0.481 0.455v0.048z"></path>
<path fill="#e6e6e6" style="fill: var(--color2, #e6e6e6)" d="M33.5 7.692c-0.025 0-0.262 0.019-0.296 0.293h-0.039c0 0 0.012-0.268-0.296-0.282l0.002-0.042c0.025 0 0.253-0.010 0.286-0.286h0.039c0 0-0.026 0.248 0.303 0.287v0.030z"></path>
<path fill="#e6e6e6" style="fill: var(--color2, #e6e6e6)" d="M24.994 0.317c-0.025 0-0.262 0.019-0.296 0.293h-0.039c0 0 0.012-0.268-0.296-0.282l0.002-0.042c0.025 0 0.253-0.010 0.286-0.286h0.039c0 0-0.026 0.248 0.303 0.287v0.030z"></path>
<path fill="#e6e6e6" style="fill: var(--color2, #e6e6e6)" d="M17.723 21.694c-0.025 0-0.262 0.019-0.296 0.293h-0.039c0 0 0.012-0.268-0.296-0.282l0.002-0.042c0.025 0 0.253-0.010 0.286-0.286h0.039c0 0-0.026 0.248 0.303 0.287v0.030z"></path>
<path fill="#fdfdff" style="fill: var(--color1, #fdfdff)" d="M35.367 30.541c0 0.286-7.899 0.517-17.644 0.517s-17.644-0.232-17.644-0.517 7.899-0.517 17.644-0.517c9.744 0 17.644 0.232 17.644 0.517z"></path>
<path fill="#9cdfdf" style="fill: var(--color3, #9cdfdf)" d="M19.783 9.826c0 0 0.1 3.674 0.349 5.581s1.896 15.022 1.896 15.022h4.441v-28.463h-3.093v3.209c0 0-2.595 0.698-2.495 3.768l-1.097 0.883z"></path>
<path fill="#9cdfdf" style="fill: var(--color3, #9cdfdf)" d="M33.156 9.826c0 0-0.1 3.674-0.349 5.581s-1.896 15.022-1.896 15.022h-4.44v-28.463h3.093v3.209c0 0 2.595 0.698 2.495 3.768l1.097 0.883z"></path>
<path fill="#fdfdff" style="fill: var(--color1, #fdfdff)" opacity="0.5" d="M19.783 9.826c0 0 0.1 3.674 0.349 5.581s1.896 15.022 1.896 15.022h4.441v-28.463h-3.093v3.209c0 0-2.595 0.698-2.495 3.768l-1.097 0.883z"></path>
<path fill="#fdfdff" style="fill: var(--color1, #fdfdff)" opacity="0.5" d="M33.156 9.826c0 0-0.1 3.674-0.349 5.581s-1.896 15.022-1.896 15.022h-4.44v-28.463h3.093v3.209c0 0 2.595 0.698 2.495 3.768l1.097 0.883z"></path>
<path fill="#fdfdff" style="fill: var(--color1, #fdfdff)" opacity="0.3" d="M23.955 5.165l-0.044-3.199h1.536l-0.274 3.199h-1.217z"></path>
<path fill="#fdfdff" style="fill: var(--color1, #fdfdff)" opacity="0.3" d="M23.689 9.826h-2.986l2.423 20.604h2.873l-2.31-20.604z"></path>
<path fill="#9cdfdf" style="fill: var(--color3, #9cdfdf)" d="M19.783 9.826c4.283-0.026 9.089-0.026 13.372 0-4.283 0.026-9.089 0.026-13.372 0z"></path>
<path fill="#fdfdff" style="fill: var(--color1, #fdfdff)" opacity="0.3" d="M22.129 8.92c0 0-0.097-1.559 0.414-2.385s1.412-1.37 1.412-1.37h1.217c0 0-1.796 0.81-1.526 3.755h-1.518z"></path>
<path fill="#9cdfdf" style="fill: var(--color3, #9cdfdf)" d="M4.994 30.43c0 0 0.391-1.673 0.559-2.454s0.335-1.394 0.335-1.394h2.403c0 0 0.584 2.636 0.759 3.703 0.008 0.052 0.016 0.1 0.023 0.145h-4.080z"></path>
<path fill="#fdfdff" style="fill: var(--color1, #fdfdff)" opacity="0.7" d="M4.994 30.43c0 0 0.391-1.673 0.559-2.454s0.335-1.394 0.335-1.394h2.403c0 0 0.584 2.636 0.759 3.703 0.008 0.052 0.016 0.1 0.023 0.145h-4.080z"></path>
<path fill="#fdfdff" style="fill: var(--color1, #fdfdff)" opacity="0.4" d="M5.587 30.43l0.479-3.473h0.74l-0.121 3.473h-1.098z"></path>
<path fill="#9cdfdf" style="fill: var(--color3, #9cdfdf)" d="M4.798 22.147c0 0 0.084 1.171 0.307 2.203s0.475 2.621 0.475 2.621h2.934c0 0 0.391-2.175 0.53-2.705s0.252-2.119 0.252-2.119l-4.498 0.001z"></path>
<path fill="#fdfdff" style="fill: var(--color1, #fdfdff)" opacity="0.7" d="M4.798 22.147c0 0 0.084 1.171 0.307 2.203s0.475 2.621 0.475 2.621h2.934c0 0 0.391-2.175 0.53-2.705s0.252-2.119 0.252-2.119l-4.498 0.001z"></path>
<path fill="#242424" style="fill: var(--color4, #242424)" opacity="0.3" d="M8.373 26.975h-2.609l-0.030 0.211h2.695l-0.057-0.211z"></path>
<path fill="#fdfdff" style="fill: var(--color1, #fdfdff)" opacity="0.4" d="M5.376 22.147l0.69 4.809h0.74c0 0-0.656-4.027-0.589-4.809h-0.841z"></path>
<path fill="#7e8fdd" style="fill: var(--color5, #7e8fdd)" d="M24.632 27.462c0.578-2.185-0.832-4.451-3.151-5.062s-4.665 0.665-5.243 2.85c-0.578 2.185 0.833 4.451 3.151 5.062s4.665-0.665 5.243-2.85z"></path>
<path fill="#242424" style="fill: var(--color4, #242424)" opacity="0.3" d="M24.632 27.462c0.578-2.185-0.832-4.451-3.151-5.062s-4.665 0.665-5.243 2.85c-0.578 2.185 0.833 4.451 3.151 5.062s4.665-0.665 5.243-2.85z"></path>
<path fill="#7e8fdd" style="fill: var(--color5, #7e8fdd)" d="M23.533 28.675c1.319-1.836 0.897-4.392-0.943-5.709s-4.401-0.895-5.72 0.941c-1.319 1.836-0.897 4.392 0.943 5.709s4.401 0.895 5.72-0.941z"></path>
<path fill="#7e8fdd" style="fill: var(--color5, #7e8fdd)" d="M20.457 30.204c2.168-0.145 3.808-2.016 3.664-4.18s-2.020-3.801-4.188-3.657c-2.168 0.145-3.808 2.016-3.664 4.18s2.020 3.801 4.188 3.657z"></path>
<path fill="#fdfdff" style="fill: var(--color1, #fdfdff)" opacity="0.8" d="M20.457 30.204c2.168-0.145 3.808-2.016 3.664-4.18s-2.020-3.801-4.188-3.657c-2.168 0.145-3.808 2.016-3.664 4.18s2.020 3.801 4.188 3.657z"></path>
<path fill="#7e8fdd" style="fill: var(--color5, #7e8fdd)" d="M16.664 25.769c-0.1 0.666-0.008 1.346 0.266 1.962 0.051 0.113 0.183 0.163 0.297 0.112 0.007-0.003 0.013-0.007 0.020-0.010l2.353-1.368c0.050-0.025 0.068-0.087 0.043-0.136-0.014-0.026-0.037-0.045-0.066-0.051l-2.637-0.693c-0.119-0.031-0.241 0.041-0.272 0.159-0.002 0.008-0.003 0.016-0.005 0.025h0.001z"></path>
<path fill="#7e8fdd" style="fill: var(--color5, #7e8fdd)" d="M19.748 26.719l-2.354 1.367c-0.107 0.062-0.142 0.2-0.079 0.306 0.004 0.007 0.008 0.013 0.013 0.019 0.401 0.541 0.949 0.957 1.578 1.2 0.116 0.045 0.245-0.013 0.29-0.128 0.003-0.008 0.005-0.014 0.007-0.022l0.695-2.629c0.015-0.054-0.017-0.109-0.071-0.124-0.027-0.008-0.055-0.003-0.078 0.011v-0.001z"></path>
<path fill="#7e8fdd" style="fill: var(--color5, #7e8fdd)" d="M20.182 26.908l-0.695 2.629c-0.031 0.119 0.039 0.241 0.159 0.272 0.008 0.003 0.017 0.004 0.026 0.005 0.667 0.099 1.348 0.007 1.965-0.266 0.113-0.050 0.165-0.181 0.115-0.293-0.003-0.007-0.008-0.015-0.012-0.023l-1.371-2.349c-0.027-0.049-0.089-0.066-0.138-0.039-0.024 0.014-0.042 0.036-0.049 0.064v-0.001z"></path>
<path fill="#7e8fdd" style="fill: var(--color5, #7e8fdd)" d="M17.016 25.301l2.633 0.693c0.054 0.014 0.11-0.018 0.125-0.072 0.007-0.026 0.003-0.054-0.010-0.077l-1.371-2.349c-0.063-0.106-0.199-0.142-0.305-0.080-0.007 0.004-0.014 0.008-0.020 0.013-0.542 0.401-0.96 0.946-1.202 1.574-0.045 0.115 0.013 0.244 0.128 0.289 0.008 0.003 0.015 0.006 0.024 0.008h-0.001z"></path>
<path fill="#7e8fdd" style="fill: var(--color5, #7e8fdd)" d="M20.622 26.735l1.371 2.349c0.062 0.106 0.199 0.142 0.305 0.080 0.007-0.004 0.014-0.008 0.020-0.014 0.542-0.4 0.96-0.947 1.202-1.575 0.045-0.115-0.012-0.244-0.127-0.288-0.008-0.003-0.016-0.006-0.025-0.008l-2.634-0.694c-0.054-0.014-0.11 0.018-0.125 0.073-0.007 0.026-0.003 0.054 0.011 0.078l0.001-0.001z"></path>
<path fill="#7e8fdd" style="fill: var(--color5, #7e8fdd)" d="M20.204 25.675l0.695-2.629c0.031-0.12-0.040-0.242-0.16-0.273-0.008-0.002-0.016-0.003-0.024-0.005-0.667-0.099-1.349-0.007-1.966 0.267-0.112 0.050-0.164 0.181-0.114 0.294 0.003 0.007 0.007 0.014 0.011 0.022l1.371 2.349c0.029 0.048 0.091 0.065 0.139 0.036 0.023-0.014 0.040-0.035 0.046-0.061h0.001z"></path>
<path fill="#7e8fdd" style="fill: var(--color5, #7e8fdd)" d="M20.638 25.863l2.353-1.368c0.106-0.062 0.143-0.198 0.080-0.304-0.004-0.007-0.008-0.013-0.014-0.020-0.401-0.541-0.949-0.957-1.578-1.2-0.115-0.045-0.244 0.012-0.289 0.126-0.003 0.008-0.006 0.016-0.008 0.025l-0.695 2.629c-0.014 0.054 0.018 0.11 0.073 0.125 0.026 0.007 0.054 0.003 0.078-0.011l-0.001-0.001z"></path>
<path fill="#7e8fdd" style="fill: var(--color5, #7e8fdd)" d="M20.811 26.302l2.633 0.693c0.118 0.032 0.241-0.039 0.272-0.157 0.003-0.008 0.004-0.018 0.005-0.026 0.1-0.666 0.008-1.346-0.265-1.962-0.051-0.113-0.183-0.163-0.296-0.112-0.007 0.003-0.014 0.007-0.020 0.011l-2.354 1.367c-0.048 0.029-0.064 0.091-0.035 0.139 0.014 0.023 0.036 0.040 0.062 0.047z"></path>
<path fill="#fdfdff" style="fill: var(--color1, #fdfdff)" opacity="0.3" d="M16.664 25.769c-0.1 0.666-0.008 1.346 0.266 1.963 0.051 0.113 0.183 0.163 0.297 0.112 0.007-0.003 0.013-0.007 0.020-0.010l2.353-1.368c0.050-0.025 0.068-0.087 0.043-0.136-0.014-0.026-0.037-0.045-0.066-0.051l-2.637-0.693c-0.119-0.031-0.241 0.040-0.272 0.159-0.002 0.008-0.003 0.016-0.005 0.024h0.001z"></path>
<path fill="#fdfdff" style="fill: var(--color1, #fdfdff)" opacity="0.3" d="M19.748 26.719l-2.354 1.367c-0.107 0.062-0.142 0.2-0.079 0.306 0.004 0.007 0.008 0.014 0.013 0.019 0.401 0.541 0.949 0.957 1.578 1.2 0.116 0.045 0.245-0.013 0.29-0.128 0.003-0.007 0.005-0.014 0.007-0.022l0.695-2.629c0.015-0.054-0.017-0.109-0.071-0.124-0.027-0.008-0.055-0.003-0.078 0.011v-0.001z"></path>
<path fill="#fdfdff" style="fill: var(--color1, #fdfdff)" opacity="0.3" d="M20.182 26.908l-0.695 2.629c-0.031 0.119 0.039 0.241 0.159 0.272 0.008 0.003 0.017 0.004 0.026 0.005 0.667 0.099 1.348 0.007 1.965-0.266 0.113-0.050 0.165-0.181 0.115-0.293-0.003-0.008-0.008-0.015-0.012-0.023l-1.371-2.349c-0.027-0.049-0.089-0.066-0.138-0.039-0.024 0.013-0.042 0.036-0.049 0.064v-0.001z"></path>
<path fill="#fdfdff" style="fill: var(--color1, #fdfdff)" opacity="0.3" d="M17.016 25.301l2.633 0.693c0.054 0.014 0.11-0.018 0.125-0.072 0.007-0.026 0.003-0.054-0.010-0.077l-1.371-2.349c-0.063-0.106-0.199-0.142-0.305-0.080-0.007 0.004-0.014 0.008-0.020 0.013-0.542 0.401-0.96 0.946-1.202 1.574-0.045 0.115 0.013 0.244 0.128 0.289 0.008 0.003 0.015 0.006 0.024 0.008h-0.001z"></path>
<path fill="#fdfdff" style="fill: var(--color1, #fdfdff)" opacity="0.3" d="M20.622 26.735l1.371 2.349c0.062 0.106 0.199 0.142 0.305 0.080 0.007-0.004 0.014-0.008 0.020-0.014 0.542-0.4 0.96-0.947 1.202-1.575 0.045-0.115-0.012-0.244-0.127-0.288-0.008-0.003-0.016-0.006-0.025-0.007l-2.634-0.694c-0.054-0.014-0.11 0.018-0.125 0.072-0.007 0.026-0.003 0.054 0.011 0.078l0.001-0.001z"></path>
<path fill="#fdfdff" style="fill: var(--color1, #fdfdff)" opacity="0.3" d="M20.204 25.675l0.695-2.629c0.031-0.12-0.040-0.242-0.16-0.273-0.008-0.002-0.016-0.003-0.024-0.005-0.667-0.099-1.349-0.007-1.966 0.267-0.112 0.050-0.164 0.181-0.114 0.294 0.003 0.007 0.007 0.014 0.011 0.022l1.371 2.349c0.029 0.048 0.091 0.065 0.139 0.036 0.023-0.014 0.040-0.035 0.046-0.061h0.001z"></path>
<path fill="#fdfdff" style="fill: var(--color1, #fdfdff)" opacity="0.3" d="M20.638 25.863l2.353-1.368c0.106-0.062 0.143-0.198 0.080-0.304-0.004-0.007-0.008-0.014-0.014-0.020-0.401-0.541-0.949-0.957-1.578-1.2-0.115-0.045-0.244 0.012-0.289 0.126-0.003 0.008-0.006 0.016-0.008 0.025l-0.695 2.628c-0.014 0.054 0.018 0.11 0.073 0.125 0.026 0.007 0.054 0.003 0.078-0.011l-0.001-0.001z"></path>
<path fill="#fdfdff" style="fill: var(--color1, #fdfdff)" opacity="0.3" d="M20.811 26.302l2.633 0.693c0.118 0.032 0.241-0.039 0.272-0.157 0.003-0.008 0.004-0.018 0.005-0.026 0.1-0.666 0.008-1.346-0.265-1.962-0.051-0.113-0.183-0.163-0.296-0.112-0.007 0.003-0.014 0.007-0.020 0.011l-2.354 1.367c-0.048 0.029-0.064 0.091-0.035 0.139 0.014 0.023 0.036 0.040 0.062 0.046z"></path>
<path fill="#7e8fdd" style="fill: var(--color5, #7e8fdd)" d="M18.225 26.48c0.112-0.014 0.209 0.017 0.216 0.071s-0.079 0.109-0.191 0.123c-0.112 0.014-0.209-0.017-0.216-0.071s0.078-0.11 0.191-0.123z"></path>
<path fill="#fdfdff" style="fill: var(--color1, #fdfdff)" opacity="0.6" d="M18.225 26.48c0.112-0.014 0.209 0.017 0.216 0.071s-0.079 0.109-0.191 0.123c-0.112 0.014-0.209-0.017-0.216-0.071s0.078-0.11 0.191-0.123z"></path>
<path fill="#7e8fdd" style="fill: var(--color5, #7e8fdd)" d="M18.904 27.57c0.084-0.075 0.182-0.103 0.218-0.063s-0.003 0.134-0.088 0.209c-0.085 0.074-0.182 0.104-0.219 0.063s0.006-0.131 0.089-0.209z"></path>
<path fill="#fdfdff" style="fill: var(--color1, #fdfdff)" opacity="0.6" d="M18.904 27.57c0.084-0.075 0.182-0.103 0.218-0.063s-0.003 0.134-0.088 0.209c-0.085 0.074-0.182 0.104-0.219 0.063s0.006-0.131 0.089-0.209z"></path>
<path fill="#7e8fdd" style="fill: var(--color5, #7e8fdd)" d="M18.861 28.475c0.067-0.091 0.156-0.14 0.199-0.108s0.025 0.131-0.040 0.223-0.155 0.14-0.199 0.108c-0.044-0.032-0.026-0.131 0.040-0.223z"></path>
<path fill="#fdfdff" style="fill: var(--color1, #fdfdff)" opacity="0.6" d="M18.861 28.475c0.067-0.091 0.156-0.14 0.199-0.108s0.025 0.131-0.040 0.223-0.155 0.14-0.199 0.108c-0.044-0.032-0.026-0.131 0.040-0.223z"></path>
<path fill="#7e8fdd" style="fill: var(--color5, #7e8fdd)" d="M21.355 24.023c0.061-0.096 0.146-0.15 0.192-0.122s0.035 0.129-0.025 0.226c-0.060 0.097-0.146 0.15-0.192 0.122s-0.033-0.128 0.025-0.226z"></path>
<path fill="#fdfdff" style="fill: var(--color1, #fdfdff)" opacity="0.6" d="M21.355 24.023c0.061-0.096 0.146-0.15 0.192-0.122s0.035 0.129-0.025 0.226c-0.060 0.097-0.146 0.15-0.192 0.122s-0.033-0.128 0.025-0.226z"></path>
<path fill="#7e8fdd" style="fill: var(--color5, #7e8fdd)" d="M21.331 24.907c0.066-0.092 0.155-0.14 0.199-0.109s0.025 0.131-0.041 0.223c-0.066 0.092-0.155 0.14-0.199 0.109s-0.026-0.131 0.041-0.223z"></path>
<path fill="#fdfdff" style="fill: var(--color1, #fdfdff)" opacity="0.6" d="M21.331 24.907c0.066-0.092 0.155-0.14 0.199-0.109s0.025 0.131-0.041 0.223c-0.066 0.092-0.155 0.14-0.199 0.109s-0.026-0.131 0.041-0.223z"></path>
<path fill="#fdfdff" style="fill: var(--color1, #fdfdff)" opacity="0.6" d="M22.502 26.111c0.111-0.018 0.209 0.011 0.218 0.064s-0.075 0.11-0.188 0.129c-0.112 0.019-0.209-0.011-0.218-0.064s0.074-0.111 0.188-0.129z"></path>
<path fill="#fdfdff" style="fill: var(--color1, #fdfdff)" opacity="0.6" d="M18.237 24.639c-0.072-0.088-0.096-0.186-0.053-0.22s0.134 0.010 0.205 0.097c0.072 0.088 0.095 0.186 0.053 0.22s-0.133-0.009-0.205-0.097z"></path>
<path fill="#fdfdff" style="fill: var(--color1, #fdfdff)" opacity="0.6" d="M18.506 25.375c-0.113-0.006-0.202-0.056-0.199-0.109s0.098-0.092 0.21-0.086c0.113 0.006 0.202 0.056 0.199 0.11s-0.097 0.093-0.21 0.086v-0.001z"></path>
<path fill="#fdfdff" style="fill: var(--color1, #fdfdff)" opacity="0.6" d="M19.563 23.987c-0.012-0.112 0.024-0.207 0.077-0.213 0.053-0.005 0.107 0.082 0.117 0.194s-0.024 0.207-0.077 0.213c-0.053 0.005-0.107-0.081-0.117-0.194z"></path>
<path fill="#7e8fdd" style="fill: var(--color5, #7e8fdd)" d="M20.719 28.754c-0.012-0.111 0.022-0.207 0.074-0.213s0.106 0.081 0.119 0.194c0.013 0.112-0.022 0.207-0.074 0.213s-0.107-0.081-0.119-0.194z"></path>
<path fill="#fdfdff" style="fill: var(--color1, #fdfdff)" opacity="0.6" d="M20.719 28.754c-0.012-0.111 0.022-0.207 0.074-0.213s0.106 0.081 0.119 0.194c0.013 0.112-0.022 0.207-0.074 0.213s-0.107-0.081-0.119-0.194z"></path>
<path fill="#7e8fdd" style="fill: var(--color5, #7e8fdd)" d="M21.595 27.356c-0.095-0.063-0.146-0.15-0.117-0.195s0.131-0.031 0.225 0.031c0.095 0.062 0.146 0.149 0.117 0.195s-0.132 0.030-0.225-0.031z"></path>
<path fill="#fdfdff" style="fill: var(--color1, #fdfdff)" opacity="0.6" d="M21.595 27.356c-0.095-0.063-0.146-0.15-0.117-0.195s0.131-0.031 0.225 0.031c0.095 0.062 0.146 0.149 0.117 0.195s-0.132 0.030-0.225-0.031z"></path>
<path fill="#7e8fdd" style="fill: var(--color5, #7e8fdd)" d="M22.377 10.996h-15.877c0 0 0.091 4.781 5.064 5.828 0 0-0.33 3.322 2.464 3.659v7.954c-2.952 0.189-4.185 1.994-4.185 1.994h9.555c0 0-1.395-1.806-4.366-1.994v-7.979c2.599-0.456 2.282-3.633 2.282-3.633 4.973-1.047 5.064-5.828 5.064-5.828v-0.001z"></path>
<path fill="#fdfdff" style="fill: var(--color1, #fdfdff)" opacity="0.7" d="M22.377 10.996h-15.877c0 0 0.091 4.781 5.064 5.828 0 0-0.33 3.322 2.464 3.659v7.954c-2.952 0.189-4.185 1.994-4.185 1.994h9.555c0 0-1.395-1.806-4.366-1.994v-7.979c2.599-0.456 2.282-3.633 2.282-3.633 4.973-1.047 5.064-5.828 5.064-5.828v-0.001z"></path>
<path fill="#fdfdff" style="fill: var(--color1, #fdfdff)" opacity="0.4" d="M21.539 10.996h-13.797c0 0 0.145 4.25 4.467 5.164 0 0-0.473 3.613 2.35 3.613h0.209c2.259-0.398 2.004-3.708 2.004-3.708 4.562-1.133 4.768-5.070 4.768-5.070h-0.001z"></path>
<path fill="#7e8fdd" style="fill: var(--color5, #7e8fdd)" opacity="0.9" d="M22.377 10.996c0 0.305-3.554 0.553-7.938 0.553s-7.938-0.248-7.938-0.553 3.554-0.553 7.938-0.553c4.384 0 7.938 0.248 7.938 0.553z"></path>
<path fill="#fdfdff" style="fill: var(--color1, #fdfdff)" opacity="0.7" d="M22.377 10.996c0 0.305-3.554 0.553-7.938 0.553s-7.938-0.248-7.938-0.553 3.554-0.553 7.938-0.553c4.384 0 7.938 0.248 7.938 0.553z"></path>
<path fill="#7e8fdd" style="fill: var(--color5, #7e8fdd)" opacity="0.9" d="M20.412 13.819c-0.678 1.098-1.93 1.822-3.641 2.247 0 0 0.255 3.311-2.004 3.708h-0.209c-2.823 0-2.35-3.613-2.35-3.613-1.621-0.343-2.869-1.079-3.565-2.407 0 0 2.254-0.159 4.233 0.156s3.262 0.561 5.287 0.18c1.292-0.244 2.248-0.271 2.248-0.271l0.001 0.001z"></path>
<path fill="#242424" style="fill: var(--color4, #242424)" opacity="0.3" d="M8.643 13.753c0 0 2.875 1.315 6.949 1.064s4.82-0.998 4.82-0.998-1.227 0.028-2.249 0.271c-1.021 0.243-2.619 0.191-3.324 0.11-0.686-0.078-3.651-0.683-6.197-0.446v-0.001z"></path>
<path fill="#7e8fdd" style="fill: var(--color5, #7e8fdd)" d="M11.388 15.546l-8.383-11.028 0.417-0.344 8.441 11.073c0 0 0.007 0.405-0.476 0.299v-0.001z"></path>
<path fill="#242424" style="fill: var(--color4, #242424)" opacity="0.3" d="M11.388 15.546l-8.383-11.028 0.417-0.344 8.441 11.073c0 0 0.007 0.405-0.476 0.299v-0.001z"></path>
<path fill="#7e8fdd" style="fill: var(--color5, #7e8fdd)" d="M10.645 8.279c-0.057-0.102-0.115-0.201-0.182-0.3-1.27-1.902-3.758-2.473-5.557-1.276s-2.227 3.71-0.957 5.61c0.065 0.099 0.135 0.192 0.208 0.284l6.489-4.319z"></path>
<path fill="#242424" style="fill: var(--color4, #242424)" opacity="0.3" d="M10.645 8.279c-0.057-0.102-0.115-0.201-0.182-0.3-1.27-1.902-3.758-2.473-5.557-1.276s-2.227 3.71-0.957 5.61c0.065 0.099 0.135 0.192 0.208 0.284l6.489-4.319z"></path>
<path fill="#7e8fdd" style="fill: var(--color5, #7e8fdd)" d="M10.655 8.273c-0.022-0.035-0.042-0.068-0.064-0.102-1.199-1.796-3.63-2.28-5.429-1.083s-2.285 3.623-1.085 5.418c0.023 0.034 0.046 0.066 0.069 0.099l6.509-4.332z"></path>
<path fill="#fdfdff" style="fill: var(--color1, #fdfdff)" opacity="0.8" d="M10.519 8.358c-0.019-0.032-0.040-0.065-0.060-0.096-1.151-1.723-3.484-2.188-5.211-1.039s-2.193 3.478-1.042 5.201c0.022 0.032 0.044 0.062 0.063 0.092l6.25-4.157z"></path>
<path fill="#7e8fdd" style="fill: var(--color5, #7e8fdd)" d="M7.736 9.911l2.16-1.443c0.098-0.067 0.123-0.2 0.056-0.298-0.003-0.006-0.008-0.011-0.012-0.016-0.414-0.493-0.96-0.857-1.574-1.052-0.112-0.035-0.232 0.027-0.268 0.138-0.003 0.008-0.004 0.015-0.006 0.023l-0.509 2.545c-0.012 0.053 0.022 0.105 0.075 0.117 0.027 0.006 0.056 0 0.079-0.016v0.002z"></path>
<path fill="#7e8fdd" style="fill: var(--color5, #7e8fdd)" d="M7.312 9.756l0.51-2.546c0.023-0.115-0.052-0.228-0.167-0.25-0.008-0.002-0.015-0.003-0.023-0.003-0.642-0.056-1.286 0.072-1.858 0.368-0.105 0.053-0.146 0.18-0.093 0.285 0.004 0.008 0.008 0.015 0.013 0.022l1.446 2.162c0.034 0.043 0.096 0.050 0.139 0.016 0.017-0.014 0.029-0.031 0.034-0.052z"></path>
<path fill="#7e8fdd" style="fill: var(--color5, #7e8fdd)" d="M6.747 10.37l-2.551-0.51c-0.116-0.023-0.229 0.052-0.252 0.169-0.002 0.008-0.003 0.015-0.003 0.023-0.056 0.641 0.072 1.284 0.368 1.855 0.054 0.105 0.182 0.146 0.287 0.092 0.007-0.003 0.014-0.008 0.020-0.012l2.164-1.441c0.044-0.032 0.053-0.094 0.021-0.137-0.014-0.019-0.033-0.032-0.056-0.037l0.001-0.001z"></path>
<path fill="#7e8fdd" style="fill: var(--color5, #7e8fdd)" d="M6.902 9.945l-1.444-2.16c-0.067-0.098-0.2-0.122-0.298-0.056-0.006 0.003-0.011 0.008-0.016 0.012-0.494 0.413-0.859 0.958-1.054 1.571-0.035 0.113 0.027 0.233 0.139 0.268 0.007 0.003 0.014 0.004 0.022 0.006l2.55 0.508c0.054 0.009 0.105-0.027 0.113-0.081 0.004-0.024-0.001-0.049-0.014-0.069h0.002z"></path>
<path fill="#fdfdff" style="fill: var(--color1, #fdfdff)" opacity="0.3" d="M7.736 9.911l2.16-1.443c0.098-0.067 0.123-0.2 0.056-0.298-0.003-0.006-0.008-0.011-0.012-0.016-0.414-0.493-0.96-0.857-1.574-1.052-0.112-0.035-0.232 0.027-0.268 0.138-0.003 0.008-0.004 0.015-0.006 0.023l-0.509 2.545c-0.012 0.053 0.022 0.105 0.075 0.117 0.027 0.006 0.056 0 0.079-0.016v0.002z"></path>
<path fill="#fdfdff" style="fill: var(--color1, #fdfdff)" opacity="0.3" d="M7.312 9.756l0.51-2.546c0.023-0.115-0.052-0.228-0.167-0.25-0.008-0.002-0.015-0.003-0.023-0.003-0.642-0.056-1.286 0.072-1.858 0.368-0.105 0.053-0.146 0.18-0.093 0.285 0.004 0.008 0.008 0.015 0.013 0.022l1.446 2.162c0.034 0.043 0.096 0.050 0.139 0.016 0.017-0.014 0.029-0.031 0.034-0.052z"></path>
<path fill="#fdfdff" style="fill: var(--color1, #fdfdff)" opacity="0.3" d="M6.747 10.37l-2.551-0.51c-0.116-0.023-0.229 0.052-0.252 0.169-0.002 0.008-0.003 0.015-0.003 0.023-0.056 0.641 0.072 1.284 0.368 1.855 0.054 0.105 0.182 0.146 0.287 0.092 0.007-0.003 0.014-0.008 0.020-0.012l2.164-1.441c0.044-0.032 0.053-0.094 0.021-0.137-0.014-0.019-0.033-0.032-0.056-0.037l0.001-0.001z"></path>
<path fill="#fdfdff" style="fill: var(--color1, #fdfdff)" opacity="0.3" d="M6.902 9.945l-1.444-2.16c-0.067-0.098-0.2-0.122-0.298-0.056-0.006 0.003-0.011 0.008-0.016 0.012-0.494 0.413-0.859 0.958-1.054 1.571-0.035 0.113 0.027 0.233 0.139 0.268 0.007 0.003 0.014 0.004 0.022 0.006l2.55 0.508c0.054 0.009 0.105-0.027 0.113-0.081 0.004-0.024-0.001-0.049-0.014-0.069h0.002z"></path>
<path fill="#7e8fdd" style="fill: var(--color5, #7e8fdd)" d="M5.067 11.231c-0.104 0.031-0.199 0.016-0.214-0.033s0.057-0.116 0.16-0.146c0.104-0.031 0.2-0.015 0.215 0.035s-0.058 0.116-0.16 0.145l-0.001-0.001z"></path>
<path fill="#fdfdff" style="fill: var(--color1, #fdfdff)" opacity="0.6" d="M5.067 11.231c-0.104 0.031-0.199 0.016-0.214-0.033s0.057-0.116 0.16-0.146c0.104-0.031 0.2-0.015 0.215 0.035s-0.058 0.116-0.16 0.145l-0.001-0.001z"></path>
<path fill="#7e8fdd" style="fill: var(--color5, #7e8fdd)" d="M5.646 10.615c-0.106 0.024-0.201 0.003-0.211-0.048s0.062-0.112 0.169-0.132c0.107-0.020 0.201-0.003 0.212 0.049s-0.064 0.109-0.17 0.132v-0.001z"></path>
<path fill="#fdfdff" style="fill: var(--color1, #fdfdff)" opacity="0.6" d="M5.646 10.615c-0.106 0.024-0.201 0.003-0.211-0.048s0.062-0.112 0.169-0.132c0.107-0.020 0.201-0.003 0.212 0.049s-0.064 0.109-0.17 0.132v-0.001z"></path>
<path fill="#7e8fdd" style="fill: var(--color5, #7e8fdd)" d="M8.524 8.252c-0.063 0.087-0.149 0.135-0.191 0.105s-0.024-0.126 0.037-0.213 0.148-0.135 0.19-0.105c0.042 0.030 0.025 0.126-0.036 0.214z"></path>
<path fill="#fdfdff" style="fill: var(--color1, #fdfdff)" opacity="0.6" d="M8.524 8.252c-0.063 0.087-0.149 0.135-0.191 0.105s-0.024-0.126 0.037-0.213 0.148-0.135 0.19-0.105c0.042 0.030 0.025 0.126-0.036 0.214z"></path>
<path fill="#fdfdff" style="fill: var(--color1, #fdfdff)" opacity="0.6" d="M5.691 9.095c0.080 0.073 0.118 0.163 0.083 0.201s-0.128 0.011-0.208-0.061c-0.080-0.072-0.117-0.162-0.083-0.201s0.128-0.011 0.208 0.061z"></path>
<path fill="#7e8fdd" style="fill: var(--color5, #7e8fdd)" d="M5.369 6.007c0.046 0.462-0.291 0.873-0.753 0.92s-0.875-0.29-0.922-0.752 0.291-0.873 0.753-0.92c0.463-0.046 0.875 0.29 0.922 0.752z"></path>
<path fill="#fdfdff" style="fill: var(--color1, #fdfdff)" opacity="0.3" d="M3.882 5.766c0 0-0.202 0.328-0.024 0.649s0.438 0.384 0.438 0.384 0.005-0.325-0.020-0.639c-0.025-0.314-0.394-0.395-0.394-0.395h0.001z"></path>
<path fill="#fdfdff" style="fill: var(--color1, #fdfdff)" opacity="0.27" d="M21.512 11.282c-4.463 0.361-9.048 0.348-13.743 0.002 0 0 0.012 2.129 1.872 3.71 0.622 0.529 1.492 0.937 2.574 1.165 0 0-0.473 3.613 2.35 3.613h0.209c2.259-0.398 2.004-3.708 2.004-3.708 1.011-0.251 1.803-0.53 2.431-0.983 2.207-1.592 2.304-3.8 2.304-3.8z"></path>
<path fill="#9cdfdf" style="fill: var(--color3, #9cdfdf)" d="M22.377 10.996c-0.005 0.044-0.052 0.064-0.087 0.082-0.271 0.109-0.568 0.137-0.855 0.18-0.993 0.124-1.994 0.175-2.994 0.22-3.663 0.12-7.35 0.156-10.999-0.22-0.287-0.043-0.584-0.072-0.855-0.18-0.035-0.019-0.081-0.039-0.087-0.082 0.005 0.044 0.052 0.063 0.087 0.082 0.271 0.108 0.568 0.136 0.855 0.178 3.651 0.366 7.335 0.315 10.999 0.212 0.999-0.042 2-0.091 2.994-0.212 0.287-0.042 0.584-0.070 0.855-0.178 0.035-0.019 0.081-0.038 0.087-0.082z"></path>
<path fill="#242424" style="fill: var(--color4, #242424)" opacity="0.3" d="M14.028 20.482v0.21c0 0 0.547 0.105 1.003-0.032v-0.203c-0.371 0.091-0.593 0.087-0.981 0.030z"></path>
<path fill="#9cdfdf" style="fill: var(--color3, #9cdfdf)" d="M13.020 28.593c0.922-0.243 1.905-0.267 2.837-0.071-0.938-0.169-1.908-0.146-2.837 0.071z"></path>
<path fill="#fdfdff" style="fill: var(--color1, #fdfdff)" opacity="0.3" d="M14.438 17.242c0.126 0 0.228-0.102 0.228-0.227s-0.102-0.228-0.228-0.228-0.228 0.102-0.228 0.228c0 0.126 0.102 0.227 0.228 0.227z"></path>
<path fill="#fdfdff" style="fill: var(--color1, #fdfdff)" opacity="0.3" d="M13.8 17.766c0 0.096-0.078 0.174-0.174 0.174s-0.174-0.078-0.174-0.174c0-0.096 0.078-0.174 0.174-0.174s0.174 0.078 0.174 0.174z"></path>
<path fill="#fdfdff" style="fill: var(--color1, #fdfdff)" opacity="0.3" d="M15.96 18.303c0.062 0 0.111-0.050 0.111-0.111s-0.050-0.111-0.111-0.111c-0.062 0-0.111 0.050-0.111 0.111s0.050 0.111 0.111 0.111z"></path>
<path fill="#fdfdff" style="fill: var(--color1, #fdfdff)" opacity="0.3" d="M13.477 16.855c0.062 0 0.111-0.050 0.111-0.111s-0.050-0.111-0.111-0.111c-0.062 0-0.111 0.050-0.111 0.111s0.050 0.111 0.111 0.111z"></path>
<path fill="#fdfdff" style="fill: var(--color1, #fdfdff)" opacity="0.3" d="M15.503 18.719c0 0.155-0.126 0.281-0.281 0.281s-0.281-0.126-0.281-0.281c0-0.155 0.126-0.281 0.281-0.281s0.281 0.126 0.281 0.281z"></path>
</symbol>
<symbol id="icon-chevron-up" viewBox="0 0 32 32">
<path fill="none" stroke="#fdfdff" style="stroke: var(--color1, #fdfdff)" stroke-linejoin="round" stroke-linecap="round" stroke-miterlimit="4" stroke-width="2.6667" d="M8 12l8 8 8-8"></path>
</symbol>
<symbol id="icon-chevron-down" viewBox="0 0 32 32">
<path fill="none" stroke="#fdfdff" style="stroke: var(--color1, #fdfdff)" stroke-linejoin="round" stroke-linecap="round" stroke-miterlimit="4" stroke-width="2.6667" d="M8 20l8-8 8 8"></path>
</symbol>
<symbol id="icon-align-justify" viewBox="0 0 32 32">
<path fill="none" stroke="#fdfdff" style="stroke: var(--color1, #000000)" stroke-linejoin="round" stroke-linecap="round" stroke-miterlimit="4" stroke-width="1.6" d="M28 13.333h-24"></path>
<path fill="none" stroke="#fdfdff" style="stroke: var(--color1, #000000)" stroke-linejoin="round" stroke-linecap="round" stroke-miterlimit="4" stroke-width="1.6" d="M28 8h-24"></path>
<path fill="none" stroke="#fdfdff" style="stroke: var(--color1, #000000)" stroke-linejoin="round" stroke-linecap="round" stroke-miterlimit="4" stroke-width="1.6" d="M28 18.667h-24"></path>
<path fill="none" stroke="#fdfdff" style="stroke: var(--color1, #000000)" stroke-linejoin="round" stroke-linecap="round" stroke-miterlimit="4" stroke-width="1.6" d="M28 24h-24"></path>
</symbol>
<symbol id="icon-On" viewBox="0 0 60 32">
<path fill="#9cdfdf" style="fill: var(--color3, #9cdfdf)" d="M16 0.889h28.444c8.346 0 15.111 6.765 15.111 15.111s-6.765 15.111-15.111 15.111h-28.444c-8.346 0-15.111-6.765-15.111-15.111s6.765-15.111 15.111-15.111z"></path>
<path fill="#fdfdff" style="fill: var(--color1, #fdfdff)" d="M44.444 3.556c6.873 0 12.444 5.572 12.444 12.444v0.002c0 6.873-5.572 12.444-12.444 12.444s-12.444-5.572-12.444-12.444v-0.002c0-6.873 5.572-12.444 12.444-12.444z"></path>
<path fill="none" stroke="#7e8fdd" style="stroke: var(--color5, #7e8fdd)" stroke-linejoin="miter" stroke-linecap="butt" stroke-miterlimit="4" stroke-width="1.7778" d="M16 0.889h28.444c8.346 0 15.111 6.765 15.111 15.111s-6.765 15.111-15.111 15.111h-28.444c-8.346 0-15.111-6.765-15.111-15.111s6.765-15.111 15.111-15.111z"></path>
</symbol>
<symbol id="icon-search" viewBox="0 0 32 32">
<path d="M29.092 31.514l-6.85-6.862c-1.077 0.935-2.334 1.663-3.77 2.185s-2.962 0.782-4.578 0.782c-3.877 0-7.163-1.349-9.855-4.046s-4.039-5.952-4.039-9.764c0-3.812 1.346-7.067 4.039-9.764s5.96-4.046 9.801-4.046c3.806 0 7.046 1.349 9.721 4.046s4.012 5.952 4.012 9.764c0 1.546-0.251 3.039-0.754 4.477s-1.257 2.787-2.262 4.046l6.958 6.862c0.323 0.288 0.485 0.656 0.485 1.106s-0.18 0.854-0.539 1.214c-0.323 0.324-0.718 0.486-1.185 0.486s-0.862-0.162-1.185-0.486zM13.84 24.383c2.908 0 5.385-1.034 7.432-3.102s3.070-4.558 3.070-7.471-1.023-5.403-3.070-7.471c-2.046-2.068-4.524-3.102-7.432-3.102-2.944 0-5.448 1.034-7.513 3.102s-3.097 4.558-3.097 7.471c0 2.913 1.032 5.403 3.097 7.471s4.569 3.102 7.513 3.102z"></path>
</symbol>
<symbol id="icon-u_facebook-f" viewBox="0 0 32 32">
<path fill="#fdfdff" style="fill: var(--color1, #fdfdff)" d="M18.425 10.801h1.462v-2.473c-0.708-0.074-1.419-0.11-2.131-0.109-2.116 0-3.562 1.291-3.562 3.656v2.038h-2.388v2.769h2.388v7.093h2.862v-7.093h2.38l0.358-2.769h-2.738v-1.766c0-0.817 0.218-1.346 1.369-1.346z"></path>
<path fill="none" stroke="#fdfdff" style="stroke: var(--color1, #fdfdff)" stroke-linejoin="miter" stroke-linecap="butt" stroke-miterlimit="4" stroke-width="0.8" d="M4.8 0.4h22.4c2.43 0 4.4 1.97 4.4 4.4v22.4c0 2.43-1.97 4.4-4.4 4.4h-22.4c-2.43 0-4.4-1.97-4.4-4.4v-22.4c0-2.43 1.97-4.4 4.4-4.4z"></path>
</symbol>
<symbol id="icon-u_instagram-1" viewBox="0 0 32 32">
<path fill="#fdfdff" style="fill: var(--color1, #fdfdff)" d="M19.991 11.115c-0.177 0-0.35 0.053-0.498 0.151s-0.262 0.238-0.33 0.402c-0.068 0.164-0.086 0.344-0.051 0.518s0.12 0.333 0.245 0.459c0.125 0.125 0.285 0.211 0.459 0.245s0.354 0.017 0.518-0.051c0.164-0.068 0.304-0.183 0.402-0.33s0.151-0.321 0.151-0.498c0-0.238-0.094-0.466-0.262-0.634s-0.396-0.262-0.634-0.262zM23.426 12.922c-0.014-0.62-0.13-1.232-0.343-1.814-0.19-0.498-0.485-0.949-0.866-1.322-0.37-0.383-0.822-0.676-1.322-0.859-0.58-0.219-1.194-0.338-1.814-0.351-0.791-0.045-1.045-0.045-3.076-0.045s-2.285 0-3.076 0.045c-0.62 0.013-1.234 0.132-1.814 0.351-0.499 0.184-0.951 0.478-1.322 0.859-0.383 0.37-0.676 0.822-0.859 1.322-0.219 0.58-0.338 1.194-0.351 1.814-0.045 0.791-0.045 1.045-0.045 3.076s0 2.285 0.045 3.076c0.013 0.62 0.132 1.234 0.351 1.814 0.182 0.5 0.476 0.952 0.859 1.322 0.371 0.381 0.823 0.675 1.322 0.859 0.58 0.219 1.194 0.338 1.814 0.351 0.791 0.045 1.045 0.045 3.076 0.045s2.285 0 3.076-0.045c0.62-0.013 1.234-0.132 1.814-0.351 0.5-0.182 0.952-0.476 1.322-0.859 0.382-0.371 0.678-0.823 0.866-1.322 0.213-0.582 0.329-1.195 0.343-1.814 0-0.791 0.045-1.045 0.045-3.076s0-2.285-0.045-3.076zM22.082 18.985c-0.005 0.474-0.091 0.944-0.254 1.389-0.119 0.325-0.311 0.619-0.56 0.859-0.242 0.247-0.535 0.438-0.859 0.56-0.445 0.163-0.915 0.248-1.389 0.254-0.747 0.037-1.023 0.045-2.987 0.045s-2.24 0-2.987-0.045c-0.492 0.009-0.982-0.067-1.449-0.224-0.309-0.128-0.589-0.319-0.821-0.56-0.248-0.24-0.437-0.534-0.553-0.859-0.182-0.452-0.283-0.932-0.299-1.419 0-0.747-0.045-1.023-0.045-2.987s0-2.24 0.045-2.987c0.003-0.485 0.092-0.965 0.261-1.419 0.132-0.315 0.333-0.596 0.59-0.821 0.227-0.257 0.507-0.461 0.821-0.597 0.455-0.164 0.935-0.25 1.419-0.254 0.747 0 1.023-0.045 2.987-0.045s2.24 0 2.987 0.045c0.474 0.005 0.944 0.091 1.389 0.254 0.339 0.126 0.644 0.331 0.889 0.597 0.245 0.229 0.436 0.51 0.56 0.821 0.166 0.455 0.252 0.935 0.254 1.419 0.037 0.747 0.045 1.023 0.045 2.987s-0.007 2.24-0.045 2.987zM16.004 12.168c-0.757 0.001-1.497 0.227-2.126 0.649s-1.119 1.020-1.408 1.721c-0.289 0.7-0.364 1.47-0.215 2.212s0.514 1.424 1.050 1.959c0.536 0.535 1.219 0.899 1.961 1.046s1.513 0.071 2.212-0.219c0.699-0.29 1.297-0.781 1.718-1.411s0.645-1.37 0.645-2.127c0.001-0.504-0.098-1.003-0.29-1.469s-0.475-0.889-0.832-1.245c-0.357-0.356-0.78-0.638-1.246-0.83s-0.965-0.289-1.469-0.287zM16.004 18.484c-0.492 0-0.972-0.146-1.381-0.419s-0.728-0.662-0.916-1.116c-0.188-0.454-0.237-0.954-0.142-1.437s0.333-0.925 0.68-1.273c0.348-0.348 0.791-0.585 1.273-0.68s0.982-0.047 1.437 0.142c0.454 0.188 0.843 0.507 1.116 0.916s0.419 0.89 0.419 1.381c0 0.326-0.064 0.65-0.189 0.952s-0.308 0.576-0.539 0.807c-0.231 0.231-0.505 0.414-0.807 0.539s-0.625 0.189-0.952 0.189z"></path>
<path fill="none" stroke="#fdfdff" style="stroke: var(--color1, #fdfdff)" stroke-linejoin="miter" stroke-linecap="butt" stroke-miterlimit="4" stroke-width="0.8" d="M4.8 0.4h22.4c2.43 0 4.4 1.97 4.4 4.4v22.4c0 2.43-1.97 4.4-4.4 4.4h-22.4c-2.43 0-4.4-1.97-4.4-4.4v-22.4c0-2.43 1.97-4.4 4.4-4.4z"></path>
</symbol>
<symbol id="icon-u_instagram" viewBox="0 0 32 32">
<path fill="#fdfdff" style="fill: var(--color1, #fdfdff)" d="M20.532 10.5c-0.748-0.044-2.288-0.088-4.62-0.088h-0.308c-2.244 0-3.74 0.044-4.488 0.132-1.012 0.088-1.716 0.352-2.112 0.704-0.352 0.308-0.616 0.88-0.704 1.628-0.044 0.484-0.088 1.496-0.088 3.036v0.22c0 1.452 0.044 2.464 0.132 2.948 0.132 0.704 0.352 1.232 0.792 1.54 0.44 0.352 1.188 0.572 2.244 0.66 0.748 0.044 2.288 0.088 4.62 0.088h0.308c2.244 0 3.74-0.044 4.488-0.132 1.012-0.088 1.716-0.352 2.112-0.704 0.352-0.308 0.616-0.88 0.704-1.628 0.044-0.484 0.088-1.496 0.088-3.036v-0.22c0-1.452-0.044-2.464-0.132-2.948-0.132-0.704-0.352-1.232-0.792-1.54-0.44-0.352-1.188-0.572-2.244-0.66zM18.816 15.912l-4.84 2.904v-5.808l4.84 2.904z"></path>
<path fill="none" stroke="#fdfdff" style="stroke: var(--color1, #fdfdff)" stroke-linejoin="miter" stroke-linecap="butt" stroke-miterlimit="4" stroke-width="0.8" d="M4.8 0.4h22.4c2.43 0 4.4 1.97 4.4 4.4v22.4c0 2.43-1.97 4.4-4.4 4.4h-22.4c-2.43 0-4.4-1.97-4.4-4.4v-22.4c0-2.43 1.97-4.4 4.4-4.4z"></path>
</symbol>
<symbol id="icon-trash-01" viewBox="0 0 32 32">
<path fill="none" stroke="#fdfdff" style="stroke: var(--color1, #fdfdff)" stroke-linejoin="round" stroke-linecap="round" stroke-miterlimit="4" stroke-width="2.6667" d="M21.333 8v-1.067c0-1.493 0-2.24-0.291-2.811-0.256-0.502-0.664-0.91-1.165-1.165-0.57-0.291-1.317-0.291-2.811-0.291h-2.133c-1.493 0-2.24 0-2.811 0.291-0.502 0.256-0.91 0.664-1.165 1.165-0.291 0.57-0.291 1.317-0.291 2.811v1.067M13.333 15.333v6.667M18.667 15.333v6.667M4 8h24M25.333 8v14.933c0 2.24 0 3.36-0.436 4.216-0.383 0.753-0.995 1.365-1.748 1.748-0.856 0.436-1.976 0.436-4.216 0.436h-5.867c-2.24 0-3.36 0-4.216-0.436-0.753-0.383-1.365-0.995-1.748-1.748-0.436-0.856-0.436-1.976-0.436-4.216v-14.933"></path>
</symbol>
<symbol id="icon-heart" viewBox="0 0 32 32">
<path fill="none" stroke="#fdfdff" style="stroke: var(--color1, #fdfdff)" stroke-linejoin="round" stroke-linecap="round" stroke-miterlimit="4" stroke-width="2.6667" d="M27.787 6.146c-0.681-0.681-1.49-1.222-2.379-1.591s-1.844-0.559-2.807-0.559-1.917 0.19-2.807 0.559c-0.89 0.369-1.699 0.909-2.38 1.591l-1.413 1.413-1.413-1.413c-1.376-1.376-3.241-2.148-5.187-2.148s-3.811 0.773-5.187 2.148c-1.376 1.376-2.148 3.241-2.148 5.187s0.773 3.811 2.148 5.187l11.787 11.787 11.787-11.787c0.681-0.681 1.222-1.49 1.591-2.38s0.559-1.844 0.559-2.807-0.19-1.917-0.559-2.807c-0.369-0.89-0.909-1.699-1.591-2.38z"></path>
</symbol>
<symbol id="icon-cocktail" viewBox="0 0 37 32">
<path fill="#7e8fdd" style="fill: var(--color5, #7e8fdd)" d="M32.894 0.904c-0.072-0.045-0.142-0.080-0.212-0.116-0.86-0.455-1.819-0.691-2.791-0.688h-0.011c-1.063 0.002-2.108 0.283-3.030 0.816s-1.69 1.299-2.227 2.222l-0.016 0.029c-0.435 0.754-0.698 1.595-0.772 2.463l-0.001 0.023h-12.727l-1.424-3.452c-0.32-0.781-0.906-1.423-1.653-1.808s-1.607-0.491-2.425-0.297l0.024-0.005-4.303 0.984 0.266 1.181 4.303-0.984c0.535-0.123 1.097-0.052 1.585 0.201s0.873 0.67 1.085 1.179l0.005 0.016 1.236 2.987h-8.082l13.513 13.591v9.951c-3.138 0.224-5.303 1.269-5.303 2.567v0.241h13.024v-0.241c0-1.296-2.169-2.347-5.303-2.567v-9.951l8.329-8.377c0.261 0.223 0.553 0.429 0.86 0.611l0.029 0.016c1.393 0.797 3.043 1.007 4.59 0.584s2.864-1.444 3.664-2.841 1.018-3.055 0.606-4.613c-0.412-1.558-1.42-2.888-2.804-3.701l-0.029-0.016-0.009-0.003zM34.218 5.58l-3.306 0.009 1.645-2.88c0.899 0.697 1.493 1.718 1.658 2.847l0.003 0.024zM31.517 2.101l-1.645 2.888-1.662-2.871c0.531-0.22 1.101-0.333 1.676-0.331 0.587 0 1.148 0.115 1.661 0.324l-0.029-0.011zM26.067 4.006c0.289-0.505 0.658-0.931 1.094-1.273l0.009-0.007 1.662 2.871-3.298 0.009c0.074-0.599 0.263-1.14 0.544-1.621l-0.011 0.020v0.001zM5.779 7.341h4.721l0.65 1.583h-3.796l-1.575-1.583zM25.524 8.925h-1.078v0.008h-12.002l-0.65-1.583h15.291l-1.562 1.575zM28.236 10.293l1.645-2.888 1.662 2.871c-0.494 0.211-1.070 0.333-1.673 0.333-0.589 0-1.151-0.116-1.664-0.328l0.029 0.012zM33.685 8.397c-0.279 0.491-0.65 0.924-1.092 1.273l-0.009 0.007-1.662-2.871 3.298-0.008c-0.076 0.57-0.261 1.119-0.545 1.619l0.012-0.021-0.001 0.001z"></path>
</symbol>
<symbol id="icon-Off" viewBox="0 0 55 32">
<path fill="#9cdfdf" style="fill: var(--color3, #9cdfdf)" d="M16 2.909c5.623 0 10.182 4.559 10.182 10.182v0.002c0 5.623-4.559 10.182-10.182 10.182s-10.182-4.559-10.182-10.182v-0.002c0-5.623 4.559-10.182 10.182-10.182z"></path>
<path fill="none" stroke="#242424" style="stroke: var(--color4, #242424)" stroke-linejoin="miter" stroke-linecap="butt" stroke-miterlimit="4" stroke-width="1.4545" d="M16 0.727h23.273c6.828 0 12.364 5.535 12.364 12.364s-5.535 12.364-12.364 12.364h-23.273c-6.828 0-12.364-5.535-12.364-12.364s5.535-12.364 12.364-12.364z"></path>
</symbol>
</defs>
</svg>
